<?xml version="1.0" encoding="UTF-8"?>
<svg width="64px" height="64px" viewBox="0 0 64 64" version="1.1" xmlns="http://www.w3.org/2000/svg" xmlns:xlink="http://www.w3.org/1999/xlink">
    <title>card</title>
    <g id="02_assets" stroke="none" stroke-width="1" fill="none" fill-rule="evenodd">
        <g id="00_logo" transform="translate(-1621.000000, -171.000000)">
            <g id="card" transform="translate(1621.000000, 171.000000)">
                <rect id="frame" x="0" y="0" width="64" height="64"></rect>
                <path d="M11.921875,54.203125 L51.7421875,54.203125 C56.921875,54.203125 59.6875,51.4609375 59.6875,46.328125 L59.6875,17.875 C59.6875,12.7421875 56.921875,10 51.7421875,10 L11.921875,10 C6.7421875,10 3.9765625,12.71875 3.9765625,17.875 L3.9765625,46.328125 C3.9765625,51.484375 6.7421875,54.203125 11.921875,54.203125 Z M12.3671875,48.9765625 C10.3046875,48.9765625 9.203125,47.9453125 9.203125,45.7890625 L9.203125,18.4140625 C9.203125,16.2578125 10.3046875,15.2265625 12.3671875,15.2265625 L51.296875,15.2265625 C53.3359375,15.2265625 54.4609375,16.2578125 54.4609375,18.4140625 L54.4609375,45.7890625 C54.4609375,47.9453125 53.3359375,48.9765625 51.296875,48.9765625 L12.3671875,48.9765625 Z M22.65625,31.9609375 C25.421875,31.9609375 27.6484375,29.6171875 27.6484375,26.5 C27.6484375,23.59375 25.421875,21.15625 22.65625,21.15625 C19.890625,21.15625 17.640625,23.59375 17.640625,26.5 C17.640625,29.6171875 19.890625,31.9609375 22.65625,31.9609375 Z M37.4921875,24.71875 L49.1640625,24.71875 C50.03125,24.71875 50.6875,24.0390625 50.6875,23.171875 C50.6875,22.328125 50.03125,21.671875 49.1640625,21.671875 L37.4921875,21.671875 C36.578125,21.671875 35.9453125,22.328125 35.9453125,23.171875 C35.9453125,24.0390625 36.578125,24.71875 37.4921875,24.71875 Z M37.4921875,33.625 L49.1640625,33.625 C50.03125,33.625 50.6875,32.9453125 50.6875,32.1015625 C50.6875,31.2578125 50.03125,30.6015625 49.1640625,30.6015625 L37.4921875,30.6015625 C36.578125,30.6015625 35.9453125,31.2578125 35.9453125,32.1015625 C35.9453125,32.9453125 36.578125,33.625 37.4921875,33.625 Z M14.0546875,42.53125 L31.2578125,42.53125 C32.1484375,42.53125 32.6171875,41.8984375 32.6171875,41.078125 C32.6171875,38.9453125 29.5,33.484375 22.65625,33.484375 C15.7890625,33.484375 12.6953125,38.9453125 12.6953125,41.078125 C12.6953125,41.8984375 13.140625,42.53125 14.0546875,42.53125 Z M37.4921875,42.53125 L49.1640625,42.53125 C50.03125,42.53125 50.6875,41.8984375 50.6875,41.0546875 C50.6875,40.1875 50.03125,39.5078125 49.1640625,39.5078125 L37.4921875,39.5078125 C36.578125,39.5078125 35.9453125,40.1875 35.9453125,41.0546875 C35.9453125,41.8984375 36.578125,42.53125 37.4921875,42.53125 Z" id="shape" fill="#FF5E00" fill-rule="nonzero"></path>
            </g>
        </g>
    </g>
</svg>