<?xml version="1.0" encoding="UTF-8"?>
<svg width="48px" height="48px" viewBox="0 0 48 48" version="1.1" xmlns="http://www.w3.org/2000/svg" xmlns:xlink="http://www.w3.org/1999/xlink">
    <title>discord_w</title>
    <g id="02_assets" stroke="none" stroke-width="1" fill="none" fill-rule="evenodd">
        <g id="00_logo" transform="translate(-1286.000000, -322.000000)">
            <g id="discord_w" transform="translate(1286.000000, 322.000000)">
                <rect id="frame" x="0" y="0" width="48" height="48"></rect>
                <path d="M37.8616893,11.2873551 C35.3122245,10.1175523 32.5783091,9.25569321 29.7198303,8.76207068 C29.667774,8.75254392 29.615774,8.77635181 29.5889571,8.82396871 C29.2373514,9.449327 28.8478867,10.265158 28.5751543,10.9063974 C25.5006755,10.4461157 22.4419713,10.4461157 19.4305348,10.9063974 C19.1577461,10.2509044 18.7541404,9.449327 18.4009573,8.82396871 C18.3741404,8.77794054 18.3221404,8.75413265 18.2700841,8.76207068 C15.4131828,9.25411574 12.6792673,10.1159749 10.1282251,11.2873551 C10.1061406,11.2968763 10.0872111,11.3127636 10.0746477,11.3333833 C4.88898583,19.0806507 3.46841629,26.6374956 4.16530022,34.1006504 C4.16845346,34.1371574 4.18894979,34.172087 4.21733007,34.1942842 C7.63868154,36.7068475 10.9528448,38.2321996 14.2054645,39.2432418 C14.2575208,39.2591291 14.3126757,39.2400869 14.3458025,39.1972136 C15.1152109,38.1465094 15.8010701,37.0386221 16.3891264,35.8735517 C16.4238306,35.8053264 16.3907039,35.7243686 16.3197743,35.6973827 C15.231887,35.2847067 14.1959997,34.7815518 13.199549,34.2101715 C13.1207321,34.1641433 13.1144223,34.0514109 13.1869293,33.9974391 C13.3966194,33.8403123 13.6063659,33.6768194 13.8065913,33.511749 C13.8428166,33.4816081 13.8932955,33.4752419 13.935887,33.4942842 C20.4821404,36.4830728 27.5692388,36.4830728 34.0382527,33.4942842 C34.0808443,33.4736645 34.1313232,33.4800307 34.169126,33.5101715 C34.3694077,33.6752419 34.5790978,33.8403123 34.7903654,33.9974391 C34.8628724,34.0514109 34.85814,34.1641433 34.7793231,34.2101715 C33.7828725,34.7926503 32.7469852,35.2847067 31.6575204,35.6958052 C31.5865908,35.7227912 31.5550415,35.8053264 31.5897458,35.8735517 C32.1904218,37.0369883 32.8762809,38.1448756 33.6314922,39.1956362 C33.6630415,39.2400869 33.7197739,39.2591291 33.7718302,39.2432418 C37.0402245,38.2321996 40.3543653,36.7068475 43.7757173,34.1942842 C43.8056891,34.172087 43.8246187,34.1387349 43.8277736,34.1022278 C44.6618018,25.4740027 42.4308159,17.9791296 37.9136893,11.3349608 C37.902647,11.3127636 37.8837738,11.2968763 37.8616893,11.2873551 Z M17.3667038,29.5563688 C15.3958307,29.5563688 13.771887,27.7469604 13.771887,25.5248196 C13.771887,23.3026788 15.3643377,21.4932704 17.3667038,21.4932704 C19.3847883,21.4932704 20.9930136,23.3185661 20.9614643,25.5248196 C20.9614643,27.7469604 19.3690137,29.5563688 17.3667038,29.5563688 Z M30.6579148,29.5563688 C28.6870979,29.5563688 27.0631543,27.7469604 27.0631543,25.5248196 C27.0631543,23.3026788 28.6555486,21.4932704 30.6579148,21.4932704 C32.6760556,21.4932704 34.2842246,23.3185661 34.2527316,25.5248196 C34.2527316,27.7469604 32.6760556,29.5563688 30.6579148,29.5563688 Z" id="shape" fill="#FFFFFF" fill-rule="nonzero"></path>
            </g>
        </g>
    </g>
</svg>