<svg width="24" height="24" viewBox="0 0 24 24" xmlns="http://www.w3.org/2000/svg">
    <g fill="none" fill-rule="evenodd">
        <path d="M0 0h24v24H0z"/>
        <path d="M18.93 5.644a16.493 16.493 0 0 0-4.07-1.263.062.062 0 0 0-.066.031c-.175.313-.37.72-.506 1.041a15.226 15.226 0 0 0-4.573 0A10.537 10.537 0 0 0 9.2 4.412a.064.064 0 0 0-.065-.031 16.447 16.447 0 0 0-4.07 1.263.058.058 0 0 0-.028.023C2.444 9.54 1.734 13.319 2.083 17.05a.069.069 0 0 0 .026.047 16.585 16.585 0 0 0 4.994 2.525.065.065 0 0 0 .07-.023c.385-.526.728-1.08 1.022-1.662a.063.063 0 0 0-.035-.088 10.922 10.922 0 0 1-1.56-.744.064.064 0 0 1-.007-.106c.105-.079.21-.16.31-.243a.062.062 0 0 1 .065-.009c3.273 1.495 6.817 1.495 10.051 0a.062.062 0 0 1 .066.008c.1.083.205.165.31.244a.064.064 0 0 1-.005.106c-.499.291-1.017.537-1.561.743a.064.064 0 0 0-.034.089c.3.581.643 1.135 1.02 1.66a.063.063 0 0 0 .07.025 16.53 16.53 0 0 0 5.003-2.525.064.064 0 0 0 .026-.046c.417-4.314-.699-8.061-2.957-11.384a.05.05 0 0 0-.026-.023zM8.684 14.778c-.985 0-1.797-.905-1.797-2.016 0-1.11.796-2.015 1.797-2.015 1.01 0 1.814.912 1.798 2.015 0 1.111-.796 2.016-1.798 2.016zm6.646 0c-.985 0-1.797-.905-1.797-2.016 0-1.11.796-2.015 1.797-2.015 1.009 0 1.813.912 1.797 2.015 0 1.111-.788 2.016-1.797 2.016z" fill-opacity=".8" fill="#141029" fill-rule="nonzero"/>
    </g>
</svg>
