<?xml version="1.0" encoding="UTF-8"?>
<svg width="64px" height="64px" viewBox="0 0 64 64" version="1.1" xmlns="http://www.w3.org/2000/svg" xmlns:xlink="http://www.w3.org/1999/xlink">
    <title>feature</title>
    <g id="02_assets" stroke="none" stroke-width="1" fill="none" fill-rule="evenodd">
        <g id="00_logo" transform="translate(-1609.000000, -249.000000)">
            <g id="feature" transform="translate(1609.000000, 249.000000)">
                <rect id="frame" x="0" y="0" width="64" height="64"></rect>
                <path d="M46.1445312,54.2734375 C51.3710938,54.2734375 54.1601562,51.484375 54.1601562,46.328125 L54.1601562,17.875 C54.1601562,12.71875 51.3710938,9.953125 46.1445312,9.953125 L17.8320312,9.953125 C12.6289062,9.953125 9.83984375,12.71875 9.83984375,17.875 L9.83984375,46.328125 C9.83984375,51.5078125 12.6289062,54.2734375 17.8320312,54.2734375 L46.1445312,54.2734375 Z M45.6757812,48.90625 L18.3242188,48.90625 C16.2851562,48.90625 15.2070312,47.875 15.2070312,45.7421875 L15.2070312,18.4609375 C15.2070312,16.328125 16.2851562,15.3203125 18.3242188,15.3203125 L45.6757812,15.3203125 C47.6679688,15.3203125 48.7929688,16.328125 48.7929688,18.4609375 L48.7929688,45.7421875 C48.7929688,47.875 47.6679688,48.90625 45.6757812,48.90625 Z M25.4257812,29.828125 C25.6132812,29.828125 25.8242188,29.6875 26.0351562,29.5703125 C27.7460938,28.5625 31.2617188,25.8671875 31.2617188,22.6796875 C31.2617188,20.6875 29.8789062,19.2578125 28.0507812,19.2578125 C26.8554688,19.2578125 25.9179688,19.984375 25.4023438,20.921875 C24.8867188,19.984375 23.9726562,19.2578125 22.7304688,19.2578125 C20.9492188,19.2578125 19.5664062,20.6875 19.5664062,22.6796875 C19.5664062,25.8671875 23.0820312,28.421875 24.7929688,29.5703125 C25.0039062,29.7109375 25.2382812,29.828125 25.4257812,29.828125 Z M42.9101562,36.5078125 C43.7773438,36.5078125 44.4335938,35.828125 44.4335938,34.9609375 C44.4335938,34.140625 43.7773438,33.484375 42.9101562,33.484375 L21.1132812,33.484375 C20.1992188,33.484375 19.5664062,34.140625 19.5664062,34.9609375 C19.5664062,35.828125 20.1992188,36.5078125 21.1132812,36.5078125 L42.9101562,36.5078125 Z M37.3554688,43.9609375 C38.2226562,43.9609375 38.8789062,43.3046875 38.8789062,42.4609375 C38.8789062,41.59375 38.2226562,40.9140625 37.3554688,40.9140625 L21.1132812,40.9140625 C20.1992188,40.9140625 19.5664062,41.59375 19.5664062,42.4609375 C19.5664062,43.3046875 20.1992188,43.9609375 21.1132812,43.9609375 L37.3554688,43.9609375 Z" id="shape" fill="#F54562" fill-rule="nonzero"></path>
            </g>
        </g>
    </g>
</svg>