<?xml version="1.0" encoding="UTF-8"?>
<svg width="1317px" height="1101px" viewBox="0 0 1317 1101" version="1.1" xmlns="http://www.w3.org/2000/svg" xmlns:xlink="http://www.w3.org/1999/xlink">
    <title>roadmap_path</title>
    <g id="02_assets" stroke="none" stroke-width="1" fill="none" fill-rule="evenodd">
        <g id="00_logo" transform="translate(-473.000000, -5004.000000)" fill="#FFFFFF" fill-rule="nonzero">
            <path id="roadmap_path" d="M1279.36289,6100.30826 L1279.51211,6100.31486 C1284.82341,6100.7455 1290.10095,6100.97253 1295.34325,6100.99765 C1296.4478,6101.00295 1297.33893,6101.90266 1297.33364,6103.00722 C1297.32834,6104.11177 1296.42863,6105.0029 1295.32407,6104.99761 C1289.9801,6104.97199 1284.60112,6104.74061 1279.18885,6104.30178 C1278.08789,6104.21251 1277.26776,6103.24764 1277.35702,6102.14669 C1277.43817,6101.14582 1278.24296,6100.37703 1279.21578,6100.31259 L1279.36289,6100.30826 Z M1321.25704,6101.4738 C1321.38235,6102.57124 1320.59429,6103.56248 1319.49686,6103.6878 C1314.16772,6104.29634 1308.7978,6104.6942 1303.38908,6104.87933 C1302.28516,6104.91712 1301.35962,6104.05285 1301.32183,6102.94892 C1301.28405,6101.845 1302.14832,6100.91946 1303.25224,6100.88168 C1308.55503,6100.70017 1313.81922,6100.31014 1319.04304,6099.71362 C1320.14048,6099.5883 1321.13172,6100.37636 1321.25704,6101.4738 Z M1256.01335,6097.11643 C1261.26821,6098.1171 1266.49412,6098.92316 1271.68983,6099.53605 C1272.78679,6099.66545 1273.57116,6100.65961 1273.44176,6101.75658 C1273.31236,6102.85354 1272.3182,6103.63791 1271.22123,6103.50851 C1265.93151,6102.88453 1260.61232,6102.06408 1255.26509,6101.04582 C1254.18002,6100.83919 1253.4679,6099.79206 1253.67453,6098.70699 C1253.88116,6097.62192 1254.92828,6096.9098 1256.01335,6097.11643 Z M1344.87413,6097.07735 C1345.13056,6098.15174 1344.46747,6099.23058 1343.39308,6099.48701 C1338.153,6100.7377 1332.86649,6101.77799 1327.53578,6102.60543 C1326.44429,6102.77486 1325.42211,6102.02737 1325.25268,6100.93587 C1325.08326,6099.84437 1325.83074,6098.82219 1326.92224,6098.65277 C1332.14693,6097.84178 1337.32833,6096.82217 1342.46446,6095.5963 C1343.53885,6095.33987 1344.61769,6096.00295 1344.87413,6097.07735 Z M1232.81915,6091.48534 C1237.96604,6093.00144 1243.08853,6094.33476 1248.18555,6095.48647 C1249.26296,6095.72991 1249.93902,6096.80068 1249.69557,6097.87809 C1249.45212,6098.95549 1248.38136,6099.63155 1247.30395,6099.3881 C1242.12299,6098.21743 1236.91759,6096.86253 1231.6889,6095.32233 C1230.62934,6095.01022 1230.02341,6093.89827 1230.33552,6092.83871 C1230.64763,6091.77916 1231.75959,6091.17323 1232.81915,6091.48534 Z M1367.73978,6089.91612 C1368.12096,6090.95283 1367.58955,6092.10226 1366.55284,6092.48345 C1361.47837,6094.34925 1356.35251,6096.01066 1351.17766,6097.46486 C1350.11428,6097.76368 1349.01,6097.14389 1348.71117,6096.0805 C1348.41235,6095.01712 1349.03215,6093.91284 1350.09553,6093.61402 C1355.16935,6092.18821 1360.19573,6090.55904 1365.17245,6088.72918 C1366.20917,6088.34799 1367.3586,6088.87941 1367.73978,6089.91612 Z M1210.31388,6083.74727 C1215.31836,6085.71235 1220.30248,6087.50781 1225.26536,6089.13458 C1226.31498,6089.47863 1226.88696,6090.60843 1226.54291,6091.65805 C1226.19885,6092.70766 1225.06906,6093.27964 1224.01944,6092.93559 C1218.98342,6091.28484 1213.92726,6089.46344 1208.85189,6087.47052 C1207.82374,6087.0668 1207.31754,6085.90605 1207.72126,6084.8779 C1208.12498,6083.84975 1209.28573,6083.34355 1210.31388,6083.74727 Z M1389.6675,6080.16153 C1390.16267,6081.14889 1389.76368,6082.35072 1388.77632,6082.84589 C1383.93398,6085.2744 1379.03631,6087.50956 1374.08579,6089.54824 C1373.06443,6089.96884 1371.89549,6089.48184 1371.47489,6088.46048 C1371.05428,6087.43913 1371.54129,6086.27019 1372.56264,6085.84959 C1377.42117,6083.84879 1382.2288,6081.65473 1386.98313,6079.27035 C1387.97049,6078.77518 1389.17232,6079.17417 1389.6675,6080.16153 Z M1188.4871,6074.15953 C1193.32821,6076.51002 1198.15246,6078.70434 1202.95912,6080.74325 C1203.97598,6081.17459 1204.45065,6082.3486 1204.01931,6083.36546 C1203.58797,6084.38233 1202.41396,6084.857 1201.3971,6084.42566 C1196.52769,6082.36013 1191.64176,6080.13775 1186.74003,6077.75783 C1185.74639,6077.27539 1185.33197,6076.07879 1185.81441,6075.08515 C1186.29685,6074.09151 1187.49345,6073.67709 1188.4871,6074.15953 Z M1410.4331,6068.08967 C1411.02864,6069.01994 1410.75729,6070.25686 1409.82702,6070.8524 C1405.25716,6073.77796 1400.6289,6076.52418 1395.94476,6079.08766 C1394.9758,6079.61794 1393.76043,6079.26232 1393.23015,6078.29336 C1392.69988,6077.3244 1393.05549,6076.10903 1394.02445,6075.57875 C1398.62772,6073.05953 1403.17718,6070.36007 1407.67037,6067.4836 C1408.60064,6066.88805 1409.83755,6067.1594 1410.4331,6068.08967 Z M1167.39628,6062.98895 C1172.06769,6065.66798 1176.72514,6068.20367 1181.36806,6070.59661 C1182.34989,6071.10265 1182.73561,6072.30881 1182.22957,6073.29064 C1181.72354,6074.27248 1180.51738,6074.65819 1179.53554,6074.15216 C1174.83919,6071.73167 1170.12926,6069.16741 1165.40632,6066.45883 C1164.44814,6065.90931 1164.11685,6064.68709 1164.66636,6063.72891 C1165.21588,6062.77073 1166.4381,6062.43944 1167.39628,6062.98895 Z M1429.91068,6054.00833 C1430.5923,6054.8775 1430.44027,6056.13467 1429.57109,6056.81629 C1425.29851,6060.16696 1420.96531,6063.354 1416.57399,6066.37381 C1415.66385,6066.99969 1414.41866,6066.76926 1413.79279,6065.85912 C1413.16691,6064.94898 1413.39734,6063.7038 1414.30748,6063.07792 C1418.6295,6060.10576 1422.89541,6056.96821 1427.10271,6053.66874 C1427.97188,6052.98712 1429.22905,6053.13915 1429.91068,6054.00833 Z M1147.10611,6050.50569 C1151.61074,6053.46423 1156.10382,6056.29112 1160.58486,6058.98687 C1161.53136,6059.55627 1161.83706,6060.78515 1161.26765,6061.73164 C1160.69825,6062.67814 1159.46937,6062.98384 1158.52288,6062.41443 C1153.99639,6059.69135 1149.45869,6056.83638 1144.91025,6053.84907 C1143.987,6053.2427 1143.73012,6052.0027 1144.33649,6051.07945 C1144.94286,6050.1562 1146.18286,6049.89932 1147.10611,6050.50569 Z M1448.00062,6038.26431 C1448.75469,6039.07143 1448.71169,6040.33703 1447.90457,6041.09111 C1443.93839,6044.79664 1439.90999,6048.35478 1435.82185,6051.76171 C1434.97331,6052.46885 1433.71218,6052.35423 1433.00503,6051.50569 C1432.29789,6050.65715 1432.41251,6049.39602 1433.26105,6048.68887 C1437.29073,6045.33067 1441.26248,6041.82256 1445.17382,6038.16827 C1445.98094,6037.41419 1447.24654,6037.45719 1448.00062,6038.26431 Z M1127.43312,6036.79938 C1131.77139,6039.99444 1136.10011,6043.06872 1140.41887,6046.02265 C1141.33058,6046.64624 1141.56415,6047.89084 1140.94056,6048.80255 C1140.31697,6049.71426 1139.07237,6049.94783 1138.16066,6049.32424 C1133.80326,6046.34389 1129.43661,6043.24266 1125.06107,6040.02016 C1124.17168,6039.36514 1123.98168,6038.11314 1124.6367,6037.22375 C1125.29173,6036.33436 1126.54372,6036.14436 1127.43312,6036.79938 Z M1464.73614,6021.1156 C1465.55081,6021.86152 1465.60654,6023.12663 1464.86062,6023.94129 C1461.20186,6027.93723 1457.47983,6031.80186 1453.69689,6035.53123 C1452.91029,6036.30669 1451.64399,6036.29766 1450.86854,6035.51106 C1450.09308,6034.72446 1450.10211,6033.45816 1450.88871,6032.6827 C1454.62274,6029.00155 1458.29746,6025.18605 1461.91046,6021.24007 C1462.65638,6020.42541 1463.92148,6020.36968 1464.73614,6021.1156 Z M1108.5934,6022.21166 C1112.77674,6025.6086 1116.95213,6028.89431 1121.11926,6032.06914 C1121.99788,6032.73854 1122.16749,6033.99346 1121.49809,6034.87208 C1120.82869,6035.7507 1119.57377,6035.92031 1118.69514,6035.25091 C1114.49499,6032.05092 1110.28715,6028.73968 1106.07193,6025.31685 C1105.21446,6024.62056 1105.08378,6023.36099 1105.78007,6022.50352 C1106.47635,6021.64605 1107.73592,6021.51537 1108.5934,6022.21166 Z M1090.28941,6006.6816 C1094.32429,6010.25166 1098.35256,6013.71911 1102.37395,6017.08424 C1103.22105,6017.7931 1103.33312,6019.05446 1102.62426,6019.90157 C1101.91539,6020.74867 1100.65403,6020.86074 1099.80693,6020.15187 C1095.7572,6016.76303 1091.70107,6013.2716 1087.63881,6009.67732 C1086.81156,6008.94537 1086.73431,6007.6814 1087.46625,6006.85416 C1088.1982,6006.02692 1089.46217,6005.94966 1090.28941,6006.6816 Z M1480.20097,6002.73724 C1481.06635,6003.42368 1481.21141,6004.68168 1480.52497,6005.54705 C1477.16186,6009.78686 1473.73447,6013.91037 1470.2451,6017.9135 C1469.51932,6018.74615 1468.25595,6018.83278 1467.4233,6018.10699 C1466.59065,6017.38121 1466.50402,6016.11784 1467.22981,6015.28519 C1470.67832,6011.32894 1474.0662,6007.25295 1477.39116,6003.06124 C1478.0776,6002.19587 1479.33559,6002.05081 1480.20097,6002.73724 Z M1072.74523,5990.54997 C1076.6419,5994.26782 1080.53304,5997.89066 1084.41843,6001.41873 C1085.23617,6002.16127 1085.29714,6003.42613 1084.5546,6004.24388 C1083.81205,6005.06162 1082.54719,6005.12259 1081.72945,6004.38004 C1077.81957,6000.82973 1073.90435,5997.18447 1069.98399,5993.44403 C1069.18482,5992.68153 1069.15509,5991.41555 1069.91759,5990.61638 C1070.68008,5989.81721 1071.94606,5989.78748 1072.74523,5990.54997 Z M1494.42006,5983.33671 C1495.3279,5983.96592 1495.55377,5985.21194 1494.92457,5986.11978 C1491.84094,5990.56893 1488.69192,5994.91553 1485.4797,5999.15535 C1484.81267,6000.03577 1483.55821,6000.20876 1482.67779,5999.54172 C1481.79737,5998.87469 1481.62439,5997.62023 1482.29142,5996.73981 C1485.46937,5992.54522 1488.5853,5988.24428 1491.63699,5983.84122 C1492.2662,5982.93338 1493.51222,5982.7075 1494.42006,5983.33671 Z M1055.72308,5973.73905 C1059.49,5977.58518 1063.25231,5981.34308 1067.0098,5985.01298 C1067.80001,5985.78476 1067.81494,5987.051 1067.04316,5987.84121 C1066.27137,5988.63141 1065.00513,5988.64635 1064.21492,5987.87456 C1060.43616,5984.18389 1056.65291,5980.40507 1052.86538,5976.5379 C1052.0925,5975.74877 1052.10567,5974.48251 1052.8948,5973.70963 C1053.68393,5972.93675 1054.95019,5972.94992 1055.72308,5973.73905 Z M1507.37645,5963.17847 C1508.31981,5963.75306 1508.61875,5964.9836 1508.04416,5965.92695 C1505.23312,5970.54209 1502.35581,5975.06786 1499.41431,5979.49988 C1498.8035,5980.4202 1497.56227,5980.6711 1496.64196,5980.0603 C1495.72164,5979.44949 1495.47073,5978.20826 1496.08154,5977.28794 C1498.99423,5972.89933 1501.84374,5968.4173 1504.62797,5963.84618 C1505.20256,5962.90282 1506.43309,5962.60388 1507.37645,5963.17847 Z M1039.25368,5956.39195 C1042.90019,5960.35034 1046.54283,5964.22652 1050.18143,5968.02068 C1050.94596,5968.8179 1050.91947,5970.08395 1050.12225,5970.84849 C1049.32503,5971.61302 1048.05897,5971.58653 1047.29444,5970.78931 C1043.63724,5966.97575 1039.97628,5963.08008 1036.31173,5959.1021 C1035.56334,5958.2897 1035.61523,5957.02444 1036.42763,5956.27605 C1037.24003,5955.52766 1038.50529,5955.57955 1039.25368,5956.39195 Z M1519.2263,5942.22792 C1520.19976,5942.7499 1520.56575,5943.96218 1520.04377,5944.93564 C1517.49678,5949.68561 1514.88268,5954.35867 1512.20344,5958.95032 C1511.64675,5959.90435 1510.42208,5960.22647 1509.46804,5959.66979 C1508.51401,5959.11311 1508.19189,5957.88843 1508.74858,5956.9344 C1511.40351,5952.38441 1513.99417,5947.75325 1516.51859,5943.04539 C1517.04056,5942.07193 1518.25285,5941.70594 1519.2263,5942.22792 Z M1023.2732,5938.54568 C1026.80715,5942.6025 1030.33784,5946.58248 1033.86515,5950.48578 C1034.60573,5951.3053 1034.54173,5952.57001 1033.72221,5953.31059 C1032.90269,5954.05117 1031.63798,5953.98717 1030.8974,5953.16765 C1027.35373,5949.24625 1023.80692,5945.2481 1020.25709,5941.17306 C1019.53157,5940.34018 1019.61859,5939.07684 1020.45146,5938.35131 C1021.28434,5937.62579 1022.54768,5937.71281 1023.2732,5938.54568 Z M1529.9053,5920.78789 C1530.90415,5921.25945 1531.33159,5922.45146 1530.86003,5923.45031 C1528.56054,5928.32098 1526.19275,5933.12607 1523.7585,5937.86094 C1523.25346,5938.84329 1522.0477,5939.23023 1521.06535,5938.7252 C1520.083,5938.22016 1519.69606,5937.01439 1520.20109,5936.03204 C1522.61466,5931.33739 1524.96254,5926.57271 1527.24287,5921.74262 C1527.71444,5920.74377 1528.90645,5920.31632 1529.9053,5920.78789 Z M1007.70791,5920.20484 C1011.13689,5924.34933 1014.56316,5928.42178 1017.98658,5932.42234 C1018.70474,5933.26157 1018.6066,5934.52409 1017.76736,5935.24226 C1016.92813,5935.96042 1015.66561,5935.86227 1014.94744,5935.02304 C1011.50956,5931.00558 1008.06903,5926.91618 1004.62599,5922.7547 C1003.92187,5921.90365 1004.04097,5920.64293 1004.89202,5919.93881 C1005.74307,5919.23469 1007.00378,5919.35379 1007.70791,5920.20484 Z M992.680113,5901.60124 C996.01139,5905.82272 999.340391,5909.97645 1002.66701,5914.06257 C1003.36438,5914.91916 1003.23531,5916.1789 1002.37872,5916.87627 C1001.52213,5917.57364 1000.2624,5917.44457 999.565025,5916.58798 C996.225541,5912.48606 992.883849,5908.31649 989.540052,5904.07915 C988.855797,5903.21205 989.004026,5901.95442 989.871129,5901.27017 C990.738233,5900.58591 991.995858,5900.73414 992.680113,5901.60124 Z M1539.54117,5898.77392 C1540.56171,5899.1965 1541.04646,5900.36637 1540.62389,5901.38691 C1538.56764,5906.35288 1536.44196,5911.26422 1534.24854,5916.11618 C1533.79354,5917.12268 1532.60875,5917.56975 1531.60225,5917.11475 C1530.59575,5916.65974 1530.14868,5915.47496 1530.60368,5914.46846 C1532.77946,5909.6555 1534.8882,5904.78332 1536.92818,5899.85664 C1537.35075,5898.8361 1538.52063,5898.35135 1539.54117,5898.77392 Z M978.012547,5882.59505 C981.252071,5886.88539 984.489697,5891.11187 987.725332,5895.2746 C988.403205,5896.14671 988.245751,5897.40321 987.373648,5898.08108 C986.501546,5898.75896 985.245043,5898.6015 984.56717,5897.7294 C981.320038,5893.55187 978.071064,5889.31058 974.820339,5885.00541 C974.154738,5884.1239 974.329762,5882.86973 975.211266,5882.20412 C976.09277,5881.53852 977.346946,5881.71355 978.012547,5882.59505 Z M1548.10428,5876.39269 C1549.14328,5876.76758 1549.68164,5877.91377 1549.30675,5878.95278 C1547.48344,5884.00596 1545.58918,5889.01478 1543.62556,5893.97438 C1543.21895,5895.00138 1542.05677,5895.50431 1541.02976,5895.09769 C1540.00276,5894.69108 1539.49983,5893.5289 1539.90645,5892.50189 C1541.85496,5887.58046 1543.73474,5882.60993 1545.54419,5877.59516 C1545.91908,5876.55615 1547.06527,5876.01779 1548.10428,5876.39269 Z M1555.65667,5853.60252 C1556.71145,5853.93041 1557.30071,5855.05129 1556.97282,5856.10607 C1555.37894,5861.23334 1553.71244,5866.32624 1551.97474,5871.37978 C1551.61557,5872.42432 1550.47763,5872.97992 1549.43309,5872.62075 C1548.38855,5872.26157 1547.83295,5871.12364 1548.19212,5870.07909 C1549.91687,5865.0632 1551.57102,5860.00807 1553.15312,5854.91867 C1553.48101,5853.86389 1554.60189,5853.27463 1555.65667,5853.60252 Z M1562.18847,5830.51441 C1563.25664,5830.79565 1563.89457,5831.88956 1563.61333,5832.95772 C1562.25011,5838.13535 1560.81272,5843.28851 1559.30244,5848.41215 C1558.99014,5849.47165 1557.87807,5850.07737 1556.81857,5849.76506 C1555.75907,5849.45276 1555.15335,5848.34069 1555.46566,5847.28119 C1556.96491,5842.19494 1558.39184,5837.07928 1559.74516,5831.93927 C1560.0264,5830.8711 1561.12031,5830.23317 1562.18847,5830.51441 Z M1567.70841,5807.15183 C1568.78781,5807.38626 1569.4728,5808.45134 1569.23836,5809.53074 C1568.10407,5814.75334 1566.89371,5819.9612 1565.60841,5825.14919 C1565.34279,5826.22134 1564.25831,5826.87517 1563.18616,5826.60955 C1562.114,5826.34393 1561.46017,5825.25945 1561.72579,5824.18729 C1563.00179,5819.03683 1564.2034,5813.86661 1565.32949,5808.68178 C1565.56393,5807.60238 1566.629,5806.91739 1567.70841,5807.15183 Z M1572.21041,5783.53439 C1573.29904,5783.72134 1574.03,5784.7554 1573.84305,5785.84404 C1572.93866,5791.11032 1571.95581,5796.37161 1570.89549,5801.62267 C1570.67686,5802.70539 1569.62191,5803.40587 1568.53919,5803.18724 C1567.45647,5802.96861 1566.75599,5801.91366 1566.97462,5800.83094 C1568.02725,5795.61799 1569.00296,5790.39494 1569.90076,5785.16702 C1570.08771,5784.07839 1571.12178,5783.34743 1572.21041,5783.53439 Z M1575.66233,5759.76747 C1576.75819,5759.90588 1577.53437,5760.90645 1577.39597,5762.00231 C1576.72725,5767.29718 1575.97756,5772.59698 1575.14773,5777.89639 C1574.97684,5778.98766 1573.95367,5779.73378 1572.8624,5779.5629 C1571.77112,5779.39202 1571.025,5778.36884 1571.19588,5777.27757 C1572.0196,5772.01722 1572.76374,5766.75663 1573.42749,5761.50111 C1573.56589,5760.40525 1574.56646,5759.62907 1575.66233,5759.76747 Z M1577.88877,5735.86707 L1578.038,5735.87351 C1579.13904,5735.9617 1579.96013,5736.92576 1579.87194,5738.0268 C1579.4467,5743.33642 1578.93778,5748.66115 1578.34584,5753.99563 C1578.22402,5755.09347 1577.2353,5755.88468 1576.13747,5755.76286 C1575.03964,5755.64104 1574.24843,5754.65232 1574.37025,5753.55449 C1574.95769,5748.26045 1575.46273,5742.97632 1575.88471,5737.70746 C1575.96488,5736.70651 1576.76891,5735.93693 1577.74166,5735.87154 L1577.88877,5735.86707 Z M1579.29192,5711.96515 C1580.39591,5712.00097 1581.26183,5712.92497 1581.22601,5714.02895 C1581.05312,5719.35699 1580.79307,5724.71084 1580.4463,5730.08506 C1580.37518,5731.18734 1579.42395,5732.02326 1578.32167,5731.95213 C1577.21939,5731.88101 1576.38348,5730.92978 1576.4546,5729.8275 C1576.79863,5724.49572 1577.05662,5719.18449 1577.22811,5713.89923 C1577.26393,5712.79524 1578.18793,5711.92932 1579.29192,5711.96515 Z M1579.3738,5687.99302 C1580.4782,5687.97343 1581.38937,5688.85283 1581.40896,5689.95723 C1581.50327,5695.27339 1581.50707,5700.62652 1581.42063,5706.01116 C1581.4029,5707.11558 1580.49321,5707.99653 1579.38879,5707.9788 C1578.28436,5707.96107 1577.40342,5707.05138 1577.42115,5705.94696 C1577.50686,5700.60719 1577.5031,5695.29911 1577.40959,5690.02818 C1577.39,5688.92378 1578.26941,5688.01261 1579.3738,5687.99302 Z M1580.3412,5665.85975 C1580.72122,5671.16715 1581.00629,5676.52374 1581.19651,5681.92399 C1581.23539,5683.02787 1580.37204,5683.95427 1579.26815,5683.99315 C1578.16427,5684.03204 1577.23787,5683.16868 1577.19899,5682.0648 C1577.01046,5676.71265 1576.72796,5671.40435 1576.35142,5666.14543 C1576.27253,5665.04368 1577.10173,5664.08658 1578.20347,5664.0077 C1579.30522,5663.92881 1580.26232,5664.75801 1580.3412,5665.85975 Z M1577.9324,5641.88324 C1578.61856,5647.14754 1579.20539,5652.47395 1579.69279,5657.85693 C1579.7924,5658.957 1578.98136,5659.92953 1577.88129,5660.02913 C1576.78122,5660.12874 1575.80869,5659.3177 1575.70909,5658.21763 C1575.22639,5652.88657 1574.64529,5647.61226 1573.96595,5642.40023 C1573.82318,5641.30492 1574.59537,5640.30127 1575.69067,5640.15851 C1576.78598,5640.01574 1577.78963,5640.78793 1577.9324,5641.88324 Z M1574.0577,5618.03248 C1575.07705,5623.23355 1575.99198,5628.5109 1576.8022,5633.859 C1576.96765,5634.95111 1576.21644,5635.97056 1575.12434,5636.13601 C1574.03223,5636.30146 1573.01278,5635.55025 1572.84733,5634.45815 C1572.04568,5629.16661 1571.14058,5623.94599 1570.13238,5618.80179 C1569.91994,5617.71784 1570.62644,5616.66691 1571.71039,5616.45447 C1572.79433,5616.24203 1573.84526,5616.94853 1574.0577,5618.03248 Z M1568.60889,5594.57472 C1569.99226,5599.68795 1571.26533,5604.89315 1572.4276,5610.18478 C1572.66456,5611.26364 1571.98207,5612.33031 1570.90322,5612.56728 C1569.82437,5612.80424 1568.75769,5612.12175 1568.52073,5611.0429 C1567.3721,5605.81335 1566.11423,5600.67033 1564.74771,5595.61934 C1564.45924,5594.55311 1565.08975,5593.4549 1566.15599,5593.16644 C1567.22223,5592.87797 1568.32043,5593.50848 1568.60889,5594.57472 Z M1561.39001,5571.5004 C1563.17772,5576.4943 1564.84825,5581.59787 1566.40088,5586.80559 C1566.71647,5587.86412 1566.1142,5588.97806 1565.05567,5589.29365 C1563.99715,5589.60923 1562.88321,5589.00696 1562.56762,5587.94844 C1561.03541,5582.80921 1559.38729,5577.77408 1557.62404,5572.84854 C1557.25177,5571.8086 1557.79302,5570.66377 1558.83296,5570.29149 C1559.8729,5569.91921 1561.01773,5570.46046 1561.39001,5571.5004 Z M1552.22638,5549.07068 C1554.45836,5553.88894 1556.56595,5558.83622 1558.54822,5563.90702 C1558.95038,5564.93578 1558.44242,5566.09577 1557.41366,5566.49792 C1556.3849,5566.90008 1555.22492,5566.39213 1554.82276,5565.36337 C1552.86994,5560.3679 1550.79431,5555.49563 1548.59688,5550.75198 C1548.1326,5549.74973 1548.56872,5548.56086 1549.57098,5548.09658 C1550.57323,5547.6323 1551.7621,5548.06842 1552.22638,5549.07068 Z M1540.96933,5527.64109 C1543.6872,5532.22018 1546.27315,5536.94932 1548.72603,5541.82307 C1549.2226,5542.80972 1548.82531,5544.01212 1547.83865,5544.50869 C1546.852,5545.00526 1545.6496,5544.60796 1545.15303,5543.6213 C1542.74141,5538.82954 1540.19984,5534.18157 1537.52959,5529.68271 C1536.96581,5528.73286 1537.27879,5527.50581 1538.22865,5526.94203 C1539.17851,5526.37826 1540.40555,5526.69123 1540.96933,5527.64109 Z M934.757627,5521.85996 C940.008838,5521.94727 945.325618,5521.96499 950.705621,5521.9124 C951.810137,5521.9016 952.714279,5522.78823 952.725077,5523.89275 C952.735874,5524.99727 951.84924,5525.90141 950.744723,5525.91221 C945.329641,5525.96514 939.97766,5525.9473 934.691129,5525.85941 C933.586712,5525.84104 932.706291,5524.93085 932.724654,5523.82643 C932.743017,5522.72202 933.65321,5521.8416 934.757627,5521.85996 Z M976.70746,5523.13712 C976.758881,5524.24049 975.906106,5525.17663 974.802734,5525.22805 C969.402832,5525.47971 964.057252,5525.66447 958.767897,5525.78292 C957.663605,5525.80765 956.748352,5524.93249 956.723624,5523.82819 C956.698896,5522.7239 957.574056,5521.80865 958.678349,5521.78392 C963.935374,5521.6662 969.248733,5521.48255 974.616523,5521.23239 C975.719895,5521.18097 976.65604,5522.03375 976.70746,5523.13712 Z M910.740046,5520.95569 L910.88937,5520.9591 C916.119547,5521.27102 921.426816,5521.50937 926.808248,5521.67319 C927.912306,5521.7068 928.780077,5522.62906 928.746468,5523.73312 C928.712859,5524.83718 927.790597,5525.70495 926.686539,5525.67134 C921.266434,5525.50634 915.920357,5525.26625 910.651241,5524.95201 C909.54863,5524.88625 908.708095,5523.9391 908.773853,5522.83649 C908.833632,5521.83412 909.621835,5521.04834 910.593058,5520.96315 L910.740046,5520.95569 Z M1000.6647,5521.53892 C1000.75359,5522.6399 999.933129,5523.60449 998.832142,5523.69338 C993.449134,5524.12799 988.113393,5524.4991 982.826482,5524.80714 C981.723783,5524.87139 980.777784,5524.02956 980.713534,5522.92686 C980.649284,5521.82417 981.491113,5520.87817 982.593813,5520.81392 C987.85088,5520.50761 993.156876,5520.13857 998.51024,5519.70635 C999.611227,5519.61746 1000.57581,5520.43793 1000.6647,5521.53892 Z M886.839134,5518.95534 L886.98812,5518.96595 C892.189202,5519.5288 897.48256,5520.01337 902.864461,5520.41833 C903.965917,5520.50121 904.791637,5521.4613 904.70876,5522.56275 C904.625882,5523.66421 903.665789,5524.48993 902.564334,5524.40705 C897.139173,5523.99884 891.802402,5523.5103 886.557758,5522.94273 C885.4596,5522.82389 884.665707,5521.83732 884.784548,5520.73916 C884.892586,5519.74083 885.717757,5518.99397 886.691957,5518.95571 L886.839134,5518.95534 Z M1527.44113,5507.52436 C1530.66747,5511.7635 1533.75594,5516.17322 1536.70519,5520.74824 C1537.30367,5521.67662 1537.03623,5522.91439 1536.10784,5523.51287 C1535.17946,5524.11135 1533.94169,5523.8439 1533.34321,5522.91552 C1530.44985,5518.42721 1527.42103,5514.10265 1524.25814,5509.94688 C1523.58918,5509.06792 1523.75942,5507.81309 1524.63838,5507.14413 C1525.51733,5506.47517 1526.77217,5506.6454 1527.44113,5507.52436 Z M1024.57791,5519.15879 C1024.7016,5520.25642 1023.91207,5521.24648 1022.81445,5521.37017 C1017.4529,5521.97436 1012.1328,5522.51809 1006.85545,5523.00171 C1005.75549,5523.10251 1004.78208,5522.29253 1004.68128,5521.19257 C1004.58048,5520.09261 1005.39046,5519.1192 1006.49042,5519.0184 C1011.74005,5518.53732 1017.03252,5517.99642 1022.36653,5517.39533 C1023.46415,5517.27164 1024.45422,5518.06117 1024.57791,5519.15879 Z M863.322997,5515.7631 C868.464624,5516.60625 873.718197,5517.36613 879.078899,5518.04084 C880.174823,5518.17877 880.951425,5519.17901 880.813489,5520.27494 C880.675553,5521.37086 879.675313,5522.14746 878.57939,5522.00953 C873.169595,5521.32864 867.866755,5520.56164 862.675697,5519.71037 C861.585686,5519.53163 860.846961,5518.5031 861.025708,5517.41309 C861.204455,5516.32307 862.232986,5515.58435 863.322997,5515.7631 Z M1048.39177,5516.05402 C1048.54791,5517.1475 1047.78805,5518.16051 1046.69457,5518.31665 C1041.35754,5519.07872 1036.05712,5519.78306 1030.79439,5520.42997 C1029.69807,5520.56473 1028.70009,5519.78524 1028.56532,5518.68892 C1028.43056,5517.5926 1029.21006,5516.59461 1030.30637,5516.45985 C1035.54322,5515.81612 1040.81783,5515.11521 1046.12914,5514.35681 C1047.22262,5514.20067 1048.23563,5514.96054 1048.39177,5516.05402 Z M839.890043,5511.16852 C844.946035,5512.33379 850.141169,5513.41001 855.469079,5514.39443 C856.555263,5514.59512 857.273099,5515.63834 857.072409,5516.72452 C856.871719,5517.81071 855.828501,5518.52854 854.742316,5518.32785 C849.357401,5517.3329 844.105071,5516.24483 838.991706,5515.06634 C837.915353,5514.81827 837.243896,5513.74462 837.491965,5512.66827 C837.740034,5511.59191 838.81369,5510.92046 839.890043,5511.16852 Z M1072.07219,5512.27612 C1072.25869,5513.36483 1071.52731,5514.39859 1070.4386,5514.5851 C1065.12788,5515.49488 1059.8497,5516.34939 1054.60497,5517.14887 C1053.51301,5517.31532 1052.49287,5516.56506 1052.32642,5515.4731 C1052.15997,5514.38115 1052.91023,5513.361 1054.00219,5513.19455 C1059.22263,5512.39877 1064.47661,5511.54818 1069.7632,5510.64254 C1070.85191,5510.45603 1071.88568,5511.18741 1072.07219,5512.27612 Z M1095.68699,5507.85301 C1095.90212,5508.93643 1095.19825,5509.98911 1094.11483,5510.20425 C1088.83451,5511.25278 1083.58324,5512.24831 1078.36179,5513.19107 C1077.2748,5513.38733 1076.23451,5512.66525 1076.03825,5511.57826 C1075.84199,5510.49126 1076.56407,5509.45098 1077.65106,5509.25472 C1082.84965,5508.31608 1088.07814,5507.32487 1093.33575,5506.28085 C1094.41916,5506.06571 1095.47185,5506.76959 1095.68699,5507.85301 Z M816.837441,5504.94041 C821.760491,5506.48467 826.861657,5507.93361 832.132309,5509.28292 C833.20237,5509.55686 833.847754,5510.64639 833.573813,5511.71645 C833.299873,5512.78651 832.210345,5513.4319 831.140284,5513.15795 C825.801413,5511.79118 820.631848,5510.32281 815.640238,5508.75704 C814.586303,5508.42644 813.999923,5507.30406 814.330522,5506.25012 C814.66112,5505.19619 815.783506,5504.60981 816.837441,5504.94041 Z M1119.15625,5502.83349 C1119.39838,5503.91119 1118.72102,5504.98113 1117.64332,5505.22327 C1112.39473,5506.40249 1107.17218,5507.53081 1101.97637,5508.6084 C1100.89481,5508.83272 1099.8362,5508.13778 1099.61189,5507.05623 C1099.38758,5505.97468 1100.08251,5504.91606 1101.16406,5504.69175 C1106.3383,5503.61863 1111.53933,5502.49497 1116.76647,5501.32056 C1117.84418,5501.07842 1118.91412,5501.75579 1119.15625,5502.83349 Z M794.5035,5496.76735 C799.207045,5498.76755 804.146733,5500.66653 809.310605,5502.45719 C810.35421,5502.81908 810.906851,5503.95845 810.544963,5505.00206 C810.183075,5506.04566 809.043698,5506.5983 808.000094,5506.23642 C802.751313,5504.41631 797.726661,5502.48468 792.938146,5500.44834 C791.92167,5500.01608 791.448069,5498.84165 791.880329,5497.82517 C792.31259,5496.8087 793.487023,5496.33509 794.5035,5496.76735 Z M1511.55366,5489.16667 C1515.31165,5492.97934 1518.92678,5496.98294 1522.39756,5501.17244 C1523.10223,5502.02304 1522.98394,5503.28383 1522.13334,5503.9885 C1521.28275,5504.69317 1520.02195,5504.57488 1519.31728,5503.72428 C1515.91948,5499.62286 1512.38152,5495.70473 1508.70488,5491.97459 C1507.92949,5491.18792 1507.93864,5489.92162 1508.72531,5489.14624 C1509.51198,5488.37085 1510.77827,5488.38 1511.55366,5489.16667 Z M1142.50656,5497.24349 C1142.77426,5498.31513 1142.12253,5499.40088 1141.05089,5499.66857 C1135.83146,5500.97239 1130.63553,5502.22715 1125.46367,5503.433 C1124.38795,5503.68381 1123.31259,5503.01509 1123.06178,5501.93938 C1122.81097,5500.86366 1123.47969,5499.7883 1124.5554,5499.53748 C1129.70681,5498.3364 1134.88236,5497.08657 1140.08147,5495.78782 C1141.15311,5495.52012 1142.23886,5496.17185 1142.50656,5497.24349 Z M1165.74336,5491.10851 C1166.03534,5492.17379 1165.40845,5493.27407 1164.34317,5493.56604 C1159.15847,5494.98708 1153.99499,5496.36083 1148.85325,5497.68746 C1147.7837,5497.96341 1146.69296,5497.32008 1146.41701,5496.25054 C1146.14105,5495.18099 1146.78439,5494.09025 1147.85393,5493.8143 C1152.97627,5492.49268 1158.12041,5491.12407 1163.28583,5489.70832 C1164.35111,5489.41634 1165.45139,5490.04323 1165.74336,5491.10851 Z M773.259834,5486.10324 C777.594665,5488.68078 782.259798,5491.15349 787.238212,5493.5087 C788.236684,5493.98107 788.66318,5495.17341 788.190817,5496.17189 C787.718454,5497.17036 786.526106,5497.59686 785.527634,5497.12449 C780.437287,5494.71632 775.660826,5492.18461 771.21549,5489.54136 C770.26608,5488.97683 769.954073,5487.74954 770.518603,5486.80013 C771.083133,5485.85072 772.310424,5485.53871 773.259834,5486.10324 Z M1188.72288,5484.49535 C1189.03782,5485.55406 1188.43487,5486.66764 1187.37616,5486.98258 C1182.22527,5488.51485 1177.09365,5490.00145 1171.98173,5491.44253 C1170.9186,5491.74223 1169.8138,5491.12335 1169.5141,5490.06021 C1169.21439,5488.99708 1169.83328,5487.89228 1170.89641,5487.59258 C1175.98987,5486.15671 1181.1031,5484.67544 1186.23564,5483.14862 C1187.29436,5482.83368 1188.40794,5483.43663 1188.72288,5484.49535 Z M1493.42993,5473.12012 C1497.69849,5476.40192 1501.82257,5479.89107 1505.80054,5483.58296 C1506.61015,5484.33436 1506.65735,5485.59981 1505.90596,5486.40942 C1505.15456,5487.21904 1503.88911,5487.26624 1503.0795,5486.51485 C1499.19172,5482.90666 1495.16203,5479.49736 1490.99188,5476.29122 C1490.11621,5475.61797 1489.9521,5474.36232 1490.62535,5473.48665 C1491.2986,5472.61097 1492.55425,5472.44687 1493.42993,5473.12012 Z M754.229885,5472.22573 C757.873405,5475.55507 762.010076,5478.78695 766.615943,5481.89656 C767.531403,5482.51463 767.772489,5483.7578 767.154423,5484.67326 C766.536357,5485.58872 765.293188,5485.82981 764.377727,5485.21174 C759.61394,5481.99551 755.323477,5478.64348 751.531637,5475.17861 C750.716224,5474.43351 750.659224,5473.16846 751.404324,5472.35305 C752.149425,5471.53763 753.414471,5471.48063 754.229885,5472.22573 Z M1211.69385,5477.35501 C1212.0308,5478.40693 1211.45121,5479.53283 1210.39929,5479.86979 C1205.28223,5481.50889 1200.18269,5483.10383 1195.10107,5484.65474 C1194.04461,5484.97717 1192.92679,5484.38212 1192.60436,5483.32566 C1192.28193,5482.26919 1192.87698,5481.15138 1193.93344,5480.82895 C1198.99748,5479.28342 1204.07948,5477.69396 1209.17907,5476.06045 C1210.23099,5475.72349 1211.3569,5476.30309 1211.69385,5477.35501 Z M1234.39669,5469.78899 C1234.75453,5470.83398 1234.19748,5471.97121 1233.15248,5472.32905 C1228.07068,5474.06924 1223.00485,5475.76667 1217.95535,5477.42146 C1216.9057,5477.76544 1215.77595,5477.19339 1215.43196,5476.14374 C1215.08798,5475.0941 1215.66003,5473.96435 1216.70968,5473.62036 C1221.74239,5471.97107 1226.79149,5470.27925 1231.85662,5468.54478 C1232.90162,5468.18694 1234.03885,5468.74399 1234.39669,5469.78899 Z M1473.19949,5459.73786 C1477.91396,5462.3941 1482.48708,5465.2669 1486.91717,5468.35228 C1487.82358,5468.98355 1488.04662,5470.23008 1487.41535,5471.13649 C1486.78407,5472.04289 1485.53754,5472.26593 1484.63114,5471.63466 C1480.30508,5468.62175 1475.8396,5465.81655 1471.23601,5463.22278 C1470.27367,5462.68058 1469.93308,5461.46091 1470.47529,5460.49858 C1471.01749,5459.53624 1472.23716,5459.19566 1473.19949,5459.73786 Z M739.802358,5454.04859 C741.997075,5458.32556 744.970687,5462.55221 748.696748,5466.6779 C749.437085,5467.49764 749.372716,5468.76233 748.552975,5469.50267 C747.733235,5470.24301 746.468542,5470.17864 745.728205,5469.3589 C741.776409,5464.98326 738.602759,5460.47228 736.243561,5455.87478 C735.739273,5454.89204 736.12713,5453.68657 737.109865,5453.18229 C738.092599,5452.678 739.298069,5453.06586 739.802358,5454.04859 Z M1256.9996,5461.76335 C1257.37745,5462.80128 1256.84235,5463.949 1255.80441,5464.32685 C1250.75882,5466.16364 1245.72783,5467.95901 1240.71175,5469.71307 C1239.66909,5470.07767 1238.52828,5469.528 1238.16368,5468.48534 C1237.79907,5467.44268 1238.34874,5466.30187 1239.3914,5465.93726 C1244.39144,5464.18882 1249.40644,5462.39915 1254.43611,5460.56816 C1255.47404,5460.19031 1256.62176,5460.72542 1256.9996,5461.76335 Z M1279.6831,5454.17038 C1280.01167,5455.22495 1279.42313,5456.34621 1278.36856,5456.67478 C1273.37821,5458.22962 1268.33409,5459.89519 1263.23644,5461.67198 C1262.19341,5462.03553 1261.05316,5461.48471 1260.68961,5460.44168 C1260.32606,5459.39865 1260.87689,5458.2584 1261.91992,5457.89485 C1267.05928,5456.10352 1272.14562,5454.42401 1277.1787,5452.85585 C1278.23327,5452.52728 1279.35452,5453.11581 1279.6831,5454.17038 Z M1451.21056,5449.32831 C1456.26717,5451.30154 1461.19045,5453.49146 1465.97886,5455.89478 C1466.96607,5456.39026 1467.36469,5457.59222 1466.86921,5458.57942 C1466.37373,5459.56663 1465.17177,5459.96525 1464.18457,5459.46976 C1459.50723,5457.12219 1454.69747,5454.98277 1449.75644,5453.05464 C1448.72744,5452.65309 1448.21879,5451.49341 1448.62034,5450.46441 C1449.02188,5449.43541 1450.18156,5448.92676 1451.21056,5449.32831 Z M1302.91481,5447.7455 C1303.18339,5448.81692 1302.53257,5449.90321 1301.46115,5450.17179 C1296.38358,5451.44464 1291.24532,5452.83964 1286.04669,5454.35742 C1284.98639,5454.66698 1283.87589,5454.05838 1283.56633,5452.99808 C1283.25676,5451.93778 1283.86536,5450.82728 1284.92566,5450.51772 C1290.17317,5448.98567 1295.36089,5447.57724 1300.48852,5446.29184 C1301.55994,5446.02326 1302.64623,5446.67409 1302.91481,5447.7455 Z M1428.09063,5442.05101 C1433.3855,5443.34458 1438.55776,5444.84794 1443.60609,5446.55854 C1444.65223,5446.91302 1445.21294,5448.04845 1444.85846,5449.09459 C1444.50398,5450.14074 1443.36855,5450.70144 1442.3224,5450.34696 C1437.38444,5448.67376 1432.32375,5447.20283 1427.14133,5445.93673 C1426.06832,5445.67459 1425.41098,5444.59223 1425.67312,5443.51922 C1425.93526,5442.44621 1427.01762,5441.78887 1428.09063,5442.05101 Z M733.7361,5429.84034 C734.832696,5429.97283 735.614265,5430.96919 735.481783,5432.06579 C734.881925,5437.03101 735.366301,5442.05225 736.926502,5447.06485 C737.254772,5448.11951 736.665915,5449.2406 735.611253,5449.56887 C734.556591,5449.89714 733.435503,5449.30828 733.107232,5448.25362 C731.381329,5442.70866 730.84216,5437.1194 731.510658,5431.58603 C731.64314,5430.48943 732.639504,5429.70786 733.7361,5429.84034 Z M1326.25624,5442.80082 C1326.45522,5443.88732 1325.73575,5444.92941 1324.64926,5445.12839 C1319.53544,5446.06496 1314.35399,5447.13433 1309.10527,5448.33726 C1308.02861,5448.58401 1306.95578,5447.91125 1306.70903,5446.83459 C1306.46227,5445.75794 1307.13504,5444.6851 1308.21169,5444.43835 C1313.51741,5443.22235 1318.75652,5442.14108 1323.92866,5441.19383 C1325.01516,5440.99485 1326.05725,5441.71432 1326.25624,5442.80082 Z M1404.23693,5437.74899 C1409.67027,5438.40156 1414.99307,5439.25187 1420.20426,5440.29793 C1421.28722,5440.51531 1421.98891,5441.56946 1421.77152,5442.65243 C1421.55414,5443.73539 1420.49999,5444.43708 1419.41703,5444.21969 C1414.3091,5443.19436 1409.08979,5442.36059 1403.75993,5441.72045 C1402.66324,5441.58873 1401.88098,5440.59291 1402.0127,5439.49622 C1402.14442,5438.39953 1403.14024,5437.61727 1404.23693,5437.74899 Z M1350.08633,5439.4885 C1350.2029,5440.5869 1349.40698,5441.57183 1348.30858,5441.68841 C1343.12908,5442.23812 1337.87248,5442.93504 1332.53923,5443.78015 C1331.44828,5443.95302 1330.42374,5443.20877 1330.25087,5442.11781 C1330.07799,5441.02685 1330.82225,5440.00232 1331.9132,5439.82944 C1337.31369,5438.97368 1342.63826,5438.26775 1347.88642,5437.71075 C1348.98482,5437.59417 1349.96975,5438.3901 1350.08633,5439.4885 Z M1372.02371,5436.18546 C1373.12809,5436.16521 1374.03978,5437.04408 1374.06003,5438.14847 C1374.08027,5439.25285 1373.2014,5440.16454 1372.09702,5440.18479 C1366.89526,5440.28014 1361.60604,5440.53734 1356.22994,5440.95763 C1355.12873,5441.04372 1354.16623,5440.2208 1354.08014,5439.11959 C1353.99405,5438.01838 1354.81697,5437.05588 1355.91818,5436.96979 C1361.37309,5436.54334 1366.74181,5436.28228 1372.02371,5436.18546 Z M1380.08443,5436.16596 C1385.5451,5436.24104 1390.90835,5436.49709 1396.17336,5436.93261 C1397.27417,5437.02367 1398.09274,5437.98987 1398.00168,5439.09068 C1397.91062,5440.19149 1396.94442,5441.01006 1395.84361,5440.919 C1390.67059,5440.49108 1385.39897,5440.23941 1380.02944,5440.16559 C1378.92498,5440.1504 1378.04194,5439.24274 1378.05713,5438.13828 C1378.07231,5437.03381 1378.97997,5436.15078 1380.08443,5436.16596 Z M744.358281,5408.53173 C745.224099,5409.21761 745.369966,5410.47551 744.684085,5411.34133 C741.260511,5415.66306 738.763378,5420.11913 737.198716,5424.6581 C736.83874,5425.70237 735.700377,5426.25709 734.656111,5425.89712 C733.611846,5425.53714 733.057119,5424.39878 733.417095,5423.35451 C735.133543,5418.37522 737.852354,5413.52357 741.548681,5408.85754 C742.234563,5407.99172 743.492464,5407.84585 744.358281,5408.53173 Z M1454.43926,5412.38529 C1459.81737,5412.50314 1465.13745,5412.56657 1470.39935,5412.57589 C1471.50392,5412.57784 1472.39776,5413.47486 1472.39581,5414.57943 C1472.39385,5415.68399 1471.49684,5416.57784 1470.39227,5416.57588 C1465.10341,5416.56651 1459.75647,5416.50276 1454.35163,5416.38433 C1453.24733,5416.36013 1452.37173,5415.4453 1452.39593,5414.34099 C1452.42013,5413.23669 1453.33496,5412.36109 1454.43926,5412.38529 Z M1494.3462,5412.23348 C1495.45024,5412.19937 1496.37289,5413.06673 1496.407,5414.17077 C1496.4411,5415.27481 1495.57375,5416.19747 1494.4697,5416.23157 C1489.18407,5416.39485 1483.83549,5416.50043 1478.42417,5416.54794 C1477.31965,5416.55764 1476.41639,5415.67011 1476.40669,5414.56558 C1476.39699,5413.46106 1477.28452,5412.5578 1478.38905,5412.5481 C1483.77102,5412.50084 1489.09014,5412.39584 1494.3462,5412.23348 Z M1430.40553,5411.52023 L1430.55488,5411.5222 C1435.92433,5411.7905 1441.24001,5412.00738 1446.50179,5412.17313 C1447.60581,5412.2079 1448.47261,5413.13108 1448.43783,5414.2351 C1448.40305,5415.33912 1447.47988,5416.20592 1446.37585,5416.17114 C1441.08941,5416.00462 1435.74917,5415.78673 1430.35526,5415.51721 C1429.25207,5415.46209 1428.40244,5414.52309 1428.45756,5413.41989 C1428.50768,5412.41699 1429.28827,5411.62365 1430.25862,5411.5291 L1430.40553,5411.52023 Z M1520.3453,5412.93615 C1520.41901,5414.03825 1519.58533,5414.99144 1518.48322,5415.06515 C1513.21002,5415.41782 1507.86838,5415.7092 1502.45854,5415.93886 C1501.35497,5415.98571 1500.42236,5415.12907 1500.37551,5414.02549 C1500.32866,5412.92192 1501.18531,5411.98931 1502.28888,5411.94246 C1507.66643,5411.71417 1512.97565,5411.42456 1518.2163,5411.07407 C1519.31841,5411.00036 1520.27159,5411.83404 1520.3453,5412.93615 Z M1406.47006,5410.00599 L1406.61931,5410.01181 C1411.97801,5410.41853 1417.28669,5410.77657 1422.54524,5411.08615 C1423.6479,5411.15107 1424.48915,5412.09758 1424.42424,5413.20024 C1424.35932,5414.3029 1423.41281,5415.14415 1422.31015,5415.07924 C1417.02896,5414.76832 1411.69773,5414.40877 1406.31658,5414.00034 C1405.21518,5413.91674 1404.39008,5412.95611 1404.47368,5411.85471 C1404.54967,5410.85344 1405.35049,5410.08052 1406.32297,5410.01107 L1406.47006,5410.00599 Z M1544.2677,5410.78543 C1544.38523,5411.88373 1543.59016,5412.86936 1542.49186,5412.98689 C1537.23958,5413.54894 1531.9125,5414.04573 1526.51092,5414.47674 C1525.40985,5414.5646 1524.44603,5413.74323 1524.35818,5412.64216 C1524.27032,5411.54109 1525.09169,5410.57728 1526.19276,5410.48942 C1531.55864,5410.06125 1536.8499,5409.56781 1542.06625,5409.0096 C1543.16454,5408.89207 1544.15017,5409.68714 1544.2677,5410.78543 Z M1382.57535,5407.8985 L1382.72441,5407.90788 C1388.07115,5408.44207 1393.37118,5408.93003 1398.62438,5409.37197 C1399.72506,5409.46457 1400.54228,5410.43191 1400.44968,5411.5326 C1400.35708,5412.63328 1399.38974,5413.45049 1398.28905,5413.35789 C1393.01498,5412.91419 1387.69419,5412.42432 1382.32676,5411.88807 C1381.22766,5411.77826 1380.42569,5410.79825 1380.5355,5409.69915 C1380.63532,5408.69997 1381.45432,5407.94634 1382.42818,5407.90008 L1382.57535,5407.8985 Z M1568.10045,5407.6192 C1568.26659,5408.71121 1567.51602,5409.73113 1566.42402,5409.89727 C1561.20099,5410.6919 1555.89569,5411.4168 1550.50849,5412.07134 C1549.41198,5412.20456 1548.41509,5411.42367 1548.28186,5410.32717 C1548.14864,5409.23066 1548.92953,5408.23377 1550.02604,5408.10054 C1555.37362,5407.45081 1560.63919,5406.73134 1565.82238,5405.94277 C1566.91439,5405.77664 1567.93431,5406.5272 1568.10045,5407.6192 Z M1358.96843,5405.26719 C1364.30011,5405.9185 1369.58803,5406.52585 1374.83211,5407.08943 C1375.93035,5407.20745 1376.72498,5408.19344 1376.60695,5409.29168 C1376.48892,5410.38993 1375.50294,5411.18455 1374.40469,5411.06653 C1369.14133,5410.50088 1363.8342,5409.89132 1358.4834,5409.23768 C1357.38698,5409.10374 1356.60674,5408.10634 1356.74067,5407.00992 C1356.87461,5405.9135 1357.87201,5405.13326 1358.96843,5405.26719 Z M1591.66262,5403.34696 C1591.88255,5404.42941 1591.18333,5405.4852 1590.10087,5405.70512 C1584.9264,5406.75643 1579.66115,5407.73324 1574.30559,5408.6348 C1573.21634,5408.81817 1572.18469,5408.08381 1572.00133,5406.99456 C1571.81796,5405.90532 1572.55232,5404.87367 1573.64157,5404.6903 C1578.95309,5403.79615 1584.17421,5402.82753 1589.30446,5401.78521 C1590.38691,5401.56528 1591.4427,5402.2645 1591.66262,5403.34696 Z M1335.17731,5402.1101 C1340.49371,5402.87045 1345.76901,5403.58892 1351.00312,5404.26565 C1352.09857,5404.40728 1352.87179,5405.41014 1352.73016,5406.50559 C1352.58852,5407.60104 1351.58567,5408.37426 1350.49022,5408.23263 C1345.23823,5407.55359 1339.94513,5406.8327 1334.61099,5406.06981 C1333.51754,5405.91342 1332.75791,5404.90024 1332.91429,5403.80679 C1333.07068,5402.71335 1334.08386,5401.95371 1335.17731,5402.1101 Z M762.58204,5392.95864 C763.20179,5393.87296 762.962991,5395.11657 762.048669,5395.73632 C757.411053,5398.87981 753.356078,5402.16392 749.897074,5405.56515 C749.109476,5406.33959 747.843191,5406.32893 747.068748,5405.54133 C746.294305,5404.75373 746.304969,5403.48744 747.092568,5402.713 C750.729684,5399.13664 754.972303,5395.70055 759.804359,5392.42527 C760.718681,5391.80552 761.962291,5392.04432 762.58204,5392.95864 Z M1311.5498,5398.49853 C1316.85022,5399.35982 1322.11188,5400.18109 1327.33472,5400.96251 C1328.42713,5401.12595 1329.18021,5402.14402 1329.01677,5403.23643 C1328.85333,5404.32884 1327.83526,5405.08192 1326.74285,5404.91848 C1321.50338,5404.13457 1316.22515,5403.31071 1310.90824,5402.44675 C1309.81798,5402.26959 1309.07776,5401.24213 1309.25492,5400.15186 C1309.43208,5399.06159 1310.45953,5398.32137 1311.5498,5398.49853 Z M1615.07695,5397.80315 C1615.35703,5398.87162 1614.71792,5399.96483 1613.64945,5400.24491 C1608.54134,5401.58392 1603.33238,5402.84316 1598.02313,5404.02169 C1596.9448,5404.26105 1595.87661,5403.58094 1595.63725,5402.50262 C1595.39788,5401.4243 1596.078,5400.3561 1597.15632,5400.11674 C1602.41646,5398.94911 1607.57627,5397.70175 1612.63518,5396.37564 C1613.70365,5396.09556 1614.79687,5396.73468 1615.07695,5397.80315 Z M1287.89405,5394.43506 C1293.17632,5395.39053 1298.422,5396.30776 1303.63104,5397.18687 C1304.7202,5397.37068 1305.45414,5398.40264 1305.27032,5399.49181 C1305.08651,5400.58097 1304.05455,5401.31491 1302.96538,5401.13109 C1297.74084,5400.24936 1292.47972,5399.32944 1287.18207,5398.37119 C1286.09514,5398.17458 1285.37339,5397.13407 1285.57,5396.04714 C1285.7666,5394.9602 1286.80712,5394.23845 1287.89405,5394.43506 Z M1638.08688,5390.87276 C1638.43386,5391.92142 1637.86503,5393.0528 1636.81638,5393.39978 C1631.80228,5395.05884 1626.67558,5396.63255 1621.43697,5398.11968 C1620.37439,5398.42133 1619.26846,5397.80447 1618.96681,5396.74189 C1618.66517,5395.6793 1619.28203,5394.57338 1620.34461,5394.27173 C1625.52845,5392.80014 1630.60042,5391.24324 1635.55986,5389.60226 C1636.60851,5389.25528 1637.7399,5389.8241 1638.08688,5390.87276 Z M1264.39291,5389.97919 C1269.65771,5391.0225 1274.88787,5392.02918 1280.08333,5392.99933 C1281.16913,5393.20208 1281.88499,5394.24666 1281.68223,5395.33246 C1281.47948,5396.41827 1280.4349,5397.13412 1279.3491,5396.93137 C1274.13914,5395.95851 1268.89455,5394.94905 1263.61536,5393.90289 C1262.53186,5393.68818 1261.82757,5392.63577 1262.04229,5391.55227 C1262.257,5390.46877 1263.30941,5389.76448 1264.39291,5389.97919 Z M1240.79363,5385.24151 C1245.86917,5386.2416 1250.9743,5387.26547 1256.10893,5388.31316 C1256.28805,5388.3497 1256.28805,5388.3497 1256.46714,5388.3862 C1257.54946,5388.60677 1258.24805,5389.66298 1258.02748,5390.7453 C1257.80691,5391.82762 1256.75071,5392.52621 1255.66838,5392.30564 C1255.48883,5392.26904 1255.48883,5392.26904 1255.30922,5392.2324 C1250.18338,5391.1865 1245.08705,5390.1644 1240.02033,5389.16604 C1238.93659,5388.9525 1238.23117,5387.90086 1238.44471,5386.81712 C1238.65825,5385.73339 1239.70989,5385.02796 1240.79363,5385.24151 Z M783.775633,5381.7266 C784.228083,5382.73425 783.778002,5383.9179 782.77035,5384.37035 C777.703438,5386.64546 773.017338,5389.04064 768.721344,5391.54568 C767.767148,5392.10208 766.542566,5391.77961 765.986164,5390.82541 C765.429761,5389.87122 765.752237,5388.64663 766.706433,5388.09023 C771.127372,5385.51233 775.939016,5383.05299 781.131884,5380.72132 C782.139536,5380.26887 783.323183,5380.71895 783.775633,5381.7266 Z M1660.55932,5382.39867 C1660.98055,5383.41976 1660.49427,5384.589 1659.47317,5385.01023 C1654.58742,5387.02574 1649.57528,5388.95004 1644.43762,5390.78156 C1643.39718,5391.15246 1642.25307,5390.6097 1641.88217,5389.56926 C1641.51126,5388.52883 1642.05403,5387.38471 1643.09446,5387.01381 C1648.17115,5385.20402 1653.12253,5383.30306 1657.94776,5381.31252 C1658.96885,5380.89128 1660.13809,5381.37757 1660.55932,5382.39867 Z M1217.1679,5380.71786 C1222.38365,5381.68699 1227.63227,5382.68211 1232.91363,5383.7033 C1233.99811,5383.91299 1234.70727,5384.96212 1234.49758,5386.04661 C1234.28789,5387.13109 1233.23875,5387.84025 1232.15427,5387.63056 C1226.88242,5386.61121 1221.64335,5385.6179 1216.43716,5384.65054 C1215.35118,5384.44876 1214.6344,5383.40482 1214.83619,5382.31883 C1215.03797,5381.23285 1216.08191,5380.51607 1217.1679,5380.71786 Z M1193.56998,5376.4711 C1198.8126,5377.3834 1204.09022,5378.32293 1209.40272,5379.28978 C1210.48944,5379.48756 1211.21007,5380.52885 1211.01229,5381.61557 C1210.81451,5382.70229 1209.77322,5383.42292 1208.6865,5383.22514 C1203.38413,5382.26013 1198.11665,5381.32241 1192.88422,5380.41187 C1191.79601,5380.22251 1191.06735,5379.18682 1191.25671,5378.0986 C1191.44608,5377.01039 1192.48177,5376.28173 1193.56998,5376.4711 Z M1682.30611,5372.21358 C1682.80924,5373.19691 1682.41996,5374.40192 1681.43664,5374.90505 C1676.72861,5377.31397 1671.8783,5379.62599 1666.88679,5381.83906 C1665.87702,5382.28675 1664.69551,5381.8311 1664.24781,5380.82133 C1663.80011,5379.81156 1664.25576,5378.63005 1665.26553,5378.18235 C1670.18963,5375.99917 1674.973,5373.71906 1679.61464,5371.34411 C1680.59796,5370.84098 1681.80298,5371.23026 1682.30611,5372.21358 Z M806.28738,5373.43815 C806.623635,5374.49029 806.043293,5375.61581 804.991149,5375.95207 C799.736252,5377.63148 794.753472,5379.41245 790.048867,5381.28981 C789.022963,5381.69919 787.859432,5381.1994 787.450049,5380.1735 C787.040665,5379.14759 787.540454,5377.98406 788.566358,5377.57468 C793.359677,5375.66192 798.430715,5373.84941 803.773462,5372.14192 C804.825605,5371.80566 805.951125,5372.38601 806.28738,5373.43815 Z M1169.84913,5372.49013 C1175.09888,5373.33807 1180.38576,5374.2144 1185.70963,5375.11919 C1186.79859,5375.30426 1187.53133,5376.33706 1187.34627,5377.42602 C1187.1612,5378.51497 1186.1284,5379.24772 1185.03944,5379.06265 C1179.72633,5378.15968 1174.45024,5377.28514 1169.21132,5376.43895 C1168.12088,5376.26282 1167.37969,5375.23606 1167.55581,5374.14563 C1167.73194,5373.05519 1168.7587,5372.314 1169.84913,5372.49013 Z M1146.19362,5368.82364 C1151.43204,5369.60071 1156.7097,5370.40722 1162.02643,5371.24326 C1163.11759,5371.41484 1163.86306,5372.4385 1163.69147,5373.52966 C1163.51989,5374.62082 1162.49624,5375.36629 1161.40508,5375.1947 C1156.09978,5374.36046 1150.83358,5373.55571 1145.60667,5372.78034 C1144.51406,5372.61826 1143.75971,5371.60113 1143.92179,5370.50851 C1144.08387,5369.4159 1145.101,5368.66156 1146.19362,5368.82364 Z M829.481651,5367.26102 C829.732011,5368.33684 829.062842,5369.41192 827.98702,5369.66228 C822.647488,5370.90487 817.514767,5372.23452 812.592913,5373.6483 C811.531273,5373.95325 810.423433,5373.33983 810.118483,5372.27819 C809.813533,5371.21655 810.426951,5370.10871 811.488591,5369.80376 C816.476811,5368.37092 821.675413,5367.0242 827.080386,5365.76639 C828.156208,5365.51602 829.231291,5366.18519 829.481651,5367.26102 Z M1122.41845,5365.4622 C1127.66407,5366.16659 1132.9516,5366.90179 1138.28086,5367.66791 C1139.37419,5367.82509 1140.13309,5368.83882 1139.97591,5369.93215 C1139.81874,5371.02548 1138.805,5371.78439 1137.71167,5371.62721 C1132.39465,5370.86285 1127.1194,5370.12935 1121.88611,5369.42662 C1120.79136,5369.27962 1120.02307,5368.27298 1120.17007,5367.17824 C1120.31708,5366.08349 1121.32371,5365.3152 1122.41845,5365.4622 Z M1703.02883,5360.18019 C1703.62094,5361.11264 1703.34505,5362.34855 1702.41259,5362.94067 C1697.94333,5365.77869 1693.31365,5368.51476 1688.52492,5371.14616 C1687.55688,5371.6781 1686.3409,5371.32456 1685.80896,5370.35652 C1685.27702,5369.38847 1685.63056,5368.17249 1686.5986,5367.64055 C1691.31375,5365.04959 1695.87074,5362.35647 1700.26835,5359.56395 C1701.2008,5358.97183 1702.43671,5359.24773 1703.02883,5360.18019 Z M1098.48718,5362.42725 C1103.75217,5363.05479 1109.06236,5363.71482 1114.41751,5364.4075 C1115.51296,5364.54919 1116.28613,5365.55208 1116.14443,5366.64753 C1116.00274,5367.74297 1114.99985,5368.51614 1113.9044,5368.37445 C1108.56243,5367.68348 1103.26548,5367.02509 1098.01377,5366.39914 C1096.91696,5366.26841 1096.1338,5365.2733 1096.26453,5364.17649 C1096.39526,5363.07969 1097.39037,5362.29653 1098.48718,5362.42725 Z M853.02518,5362.69796 C853.20878,5363.78716 852.474644,5364.81898 851.38544,5365.00258 C846.008804,5365.90888 840.796584,5366.89112 835.751606,5367.94745 C834.670481,5368.17382 833.610548,5367.4809 833.384179,5366.39978 C833.157809,5365.31865 833.850726,5364.25872 834.931851,5364.03235 C840.028837,5362.96513 845.292672,5361.97317 850.720564,5361.05822 C851.809768,5360.87462 852.841579,5361.60876 853.02518,5362.69796 Z M1074.56364,5359.7724 L1074.71267,5359.78226 C1079.97092,5360.32452 1085.27763,5360.90083 1090.63252,5361.51133 C1091.72998,5361.63645 1092.51822,5362.62755 1092.3931,5363.72501 C1092.26798,5364.82247 1091.27688,5365.61071 1090.17942,5365.48559 C1084.83873,5364.8767 1079.54628,5364.30194 1074.30234,5363.76116 C1073.2036,5363.64785 1072.40475,5362.66528 1072.51806,5361.56654 C1072.62107,5360.56769 1073.44247,5359.81667 1074.41646,5359.77351 L1074.56364,5359.7724 Z M876.818105,5359.41034 C876.947624,5360.50729 876.163367,5361.50154 875.066417,5361.63106 C869.667658,5362.2685 864.404439,5362.9734 859.278808,5363.74451 C858.18653,5363.90884 857.167851,5363.15659 857.003525,5362.06431 C856.8392,5360.97203 857.591453,5359.95335 858.683731,5359.78903 C863.851675,5359.01154 869.156902,5358.30102 874.597388,5357.65866 C875.694337,5357.52914 876.688586,5358.31339 876.818105,5359.41034 Z M1050.58736,5357.50892 L1050.73655,5357.5162 C1055.99095,5357.96636 1061.29767,5358.45236 1066.65639,5358.97436 C1067.75576,5359.08145 1068.56015,5360.05948 1068.45306,5361.15885 C1068.34597,5362.25821 1067.36794,5363.06261 1066.26858,5362.95552 C1060.92525,5362.43501 1055.63398,5361.95043 1050.3951,5361.5016 C1049.29457,5361.40731 1048.47884,5360.43871 1048.57313,5359.33817 C1048.65884,5358.33768 1049.46713,5357.57258 1050.44023,5357.51257 L1050.58736,5357.50892 Z M1026.54392,5355.67686 L1026.69322,5355.68132 C1031.97347,5356.03345 1037.31122,5356.42388 1042.70609,5356.85283 C1043.80719,5356.94038 1044.62883,5357.90396 1044.54128,5359.00506 C1044.45373,5360.10615 1043.49015,5360.92779 1042.38905,5360.84025 C1037.01107,5360.41264 1031.69027,5360.02345 1026.42705,5359.67245 C1025.32493,5359.59895 1024.49107,5358.64592 1024.56457,5357.5438 C1024.63138,5356.54187 1025.42509,5355.76165 1026.39688,5355.68329 L1026.54392,5355.67686 Z M900.747534,5357.17801 C900.831977,5358.27935 900.007621,5359.24061 898.906284,5359.32505 C893.504634,5359.73922 888.217324,5360.21393 883.045877,5360.74834 C881.947159,5360.86188 880.964429,5360.06324 880.850889,5358.96452 C880.737349,5357.8658 881.535994,5356.88307 882.634712,5356.76953 C887.841515,5356.23147 893.163943,5355.7536 898.600489,5355.33676 C899.701826,5355.25232 900.663091,5356.07667 900.747534,5357.17801 Z M1002.64147,5354.32863 L1002.79083,5354.33002 C1008.05678,5354.57258 1013.38542,5354.85563 1018.77625,5355.17943 C1019.87884,5355.24566 1020.71897,5356.19317 1020.65274,5357.29575 C1020.58651,5358.39833 1019.63901,5359.23847 1018.53642,5359.17224 C1013.1641,5358.84955 1007.85406,5358.56748 1002.60678,5358.32579 C1001.50338,5358.27496 1000.6501,5357.33928 1000.70092,5356.23588 C1000.74712,5355.23279 1001.52462,5354.43641 1002.4946,5354.33809 L1002.64147,5354.32863 Z M1722.48713,5346.10422 C1723.1742,5346.96909 1723.03007,5348.22719 1722.1652,5348.91427 C1718.01447,5352.21169 1713.68325,5355.40366 1709.17316,5358.48653 C1708.26127,5359.10985 1707.01674,5358.87592 1706.39341,5357.96403 C1705.77009,5357.05214 1706.00402,5355.80761 1706.91591,5355.18429 C1711.34742,5352.15512 1715.60163,5349.01991 1719.67709,5345.78228 C1720.54196,5345.09521 1721.80006,5345.23935 1722.48713,5346.10422 Z M924.658193,5355.8419 C924.704345,5356.9455 923.847111,5357.87757 922.743506,5357.92372 C917.323236,5358.1504 912.002262,5358.43251 906.781763,5358.76944 C905.679487,5358.84058 904.728246,5358.00468 904.657107,5356.9024 C904.585968,5355.80012 905.421869,5354.84888 906.524146,5354.77774 C911.774991,5354.43886 917.126123,5354.15514 922.576372,5353.92721 C923.679977,5353.88106 924.61204,5354.73829 924.658193,5355.8419 Z M978.787168,5353.49385 C984.050241,5353.61605 989.382539,5353.7815 994.783484,5353.99051 C995.887227,5354.03322 996.747361,5354.96261 996.704648,5356.06635 C996.661934,5357.1701 995.732547,5358.03023 994.628804,5357.98752 C989.24837,5357.7793 983.936683,5357.61449 978.694324,5357.49277 C977.590052,5357.46713 976.715647,5356.55116 976.741285,5355.44689 C976.766923,5354.34262 977.682896,5353.46821 978.787168,5353.49385 Z M946.665895,5353.29231 C947.770391,5353.27952 948.67613,5354.16452 948.688921,5355.26902 C948.701712,5356.37351 947.816711,5357.27925 946.712215,5357.29204 C941.302744,5357.35469 935.980039,5357.46807 930.745014,5357.6317 C929.640984,5357.66621 928.718016,5356.79919 928.683508,5355.69516 C928.649,5354.59113 929.51602,5353.66816 930.62005,5353.63365 C935.881438,5353.4692 941.230356,5353.35526 946.665895,5353.29231 Z M970.686253,5353.33907 C971.790699,5353.35558 972.67265,5354.26429 972.656145,5355.36873 C972.63964,5356.47318 971.73093,5357.35513 970.626484,5357.33862 C965.238106,5357.2581 959.92635,5357.22423 954.691935,5357.23664 C953.587369,5357.23926 952.689819,5356.34595 952.687201,5355.24138 C952.684583,5354.13682 953.577888,5353.23927 954.682455,5353.23665 C959.940074,5353.22419 965.274913,5353.2582 970.686253,5353.33907 Z M1740.23732,5329.91354 C1741.02201,5330.69093 1741.02791,5331.95725 1740.25052,5332.74193 C1736.50996,5336.51755 1732.56727,5340.1868 1728.42435,5343.74481 C1727.58639,5344.46446 1726.3237,5344.36855 1725.60405,5343.53059 C1724.88439,5342.69264 1724.9803,5341.42994 1725.81826,5340.71029 C1729.88011,5337.22191 1733.74421,5333.62579 1737.40893,5329.92673 C1738.18633,5329.14205 1739.45264,5329.13614 1740.23732,5329.91354 Z M1755.80173,5311.62734 C1756.68142,5312.29535 1756.85301,5313.55 1756.18501,5314.42968 C1752.95819,5318.67902 1749.50745,5322.82519 1745.83486,5326.8617 C1745.09151,5327.67871 1743.82659,5327.73842 1743.00958,5326.99507 C1742.19257,5326.25172 1742.13286,5324.9868 1742.87621,5324.16979 C1746.46938,5320.22057 1749.84436,5316.16542 1752.99939,5312.01062 C1753.6674,5311.13093 1754.92205,5310.95934 1755.80173,5311.62734 Z M1768.71157,5291.37546 C1769.67684,5291.91242 1770.02405,5293.13022 1769.48708,5294.09549 C1766.8837,5298.77543 1764.03729,5303.36123 1760.94981,5307.84451 C1760.32332,5308.75423 1759.07798,5308.98383 1758.16826,5308.35734 C1757.25855,5307.73085 1757.02894,5306.48551 1757.65543,5305.57579 C1760.67084,5301.19717 1763.4501,5296.71955 1765.99154,5292.15097 C1766.52851,5291.1857 1767.74631,5290.83849 1768.71157,5291.37546 Z M1778.51781,5269.50131 C1779.55189,5269.88958 1780.07542,5271.04262 1779.68715,5272.0767 C1777.79669,5277.11156 1775.64878,5282.06766 1773.24494,5286.93459 C1772.75579,5287.92494 1771.55641,5288.33125 1770.56605,5287.8421 C1769.5757,5287.35295 1769.16939,5286.15357 1769.65854,5285.16321 C1772.00356,5280.41539 1774.09863,5275.58121 1775.94242,5270.67065 C1776.33069,5269.63657 1777.48373,5269.11304 1778.51781,5269.50131 Z M1784.94235,5246.38658 C1786.02308,5246.61483 1786.71415,5247.67597 1786.4859,5248.7567 C1785.36984,5254.04103 1783.98858,5259.26804 1782.34273,5264.42534 C1782.00691,5265.47763 1780.88164,5266.05844 1779.82935,5265.72262 C1778.77707,5265.38681 1778.19626,5264.26153 1778.53207,5263.20925 C1780.13699,5258.1802 1781.4839,5253.08321 1782.57223,5247.93013 C1782.80048,5246.8494 1783.86162,5246.15833 1784.94235,5246.38658 Z M1787.67969,5222.65836 L1787.82902,5222.66176 C1788.93163,5222.72741 1789.77226,5223.67448 1789.7066,5224.7771 C1789.38505,5230.1773 1788.79908,5235.54617 1787.94804,5240.86983 C1787.77367,5241.96055 1786.74812,5242.7034 1785.6574,5242.52904 C1784.56668,5242.35468 1783.82383,5241.32913 1783.99819,5240.2384 C1784.82832,5235.04555 1785.39995,5229.80807 1785.71368,5224.53934 C1785.77336,5223.53696 1786.56149,5222.75111 1787.53271,5222.66584 L1787.67969,5222.65836 Z M1789.3855,5200.48813 C1789.84529,5205.8891 1790.04771,5211.28704 1789.99056,5216.66708 C1789.97883,5217.77159 1789.07393,5218.65746 1787.96943,5218.64573 C1786.86492,5218.63399 1785.97905,5217.7291 1785.99079,5216.6246 C1786.04658,5211.37241 1785.84894,5206.10187 1785.39992,5200.82742 C1785.30623,5199.72683 1786.12248,5198.75867 1787.22306,5198.66498 C1788.32365,5198.57129 1789.29181,5199.38754 1789.3855,5200.48813 Z M1785.65915,5176.53466 C1786.8566,5181.82464 1787.80935,5187.14008 1788.5136,5192.46582 C1788.6584,5193.56086 1787.88808,5194.56595 1786.79305,5194.71075 C1785.69801,5194.85555 1784.69292,5194.08524 1784.54812,5192.9902 C1783.85985,5187.78537 1782.92856,5182.58961 1781.75785,5177.41776 C1781.51399,5176.34045 1782.18964,5175.26942 1783.26695,5175.02556 C1784.34427,5174.7817 1785.41529,5175.45735 1785.65915,5176.53466 Z M1778.74616,5153.26254 C1780.62299,5158.34406 1782.27202,5163.47813 1783.68795,5168.64997 C1783.97963,5169.71533 1783.35242,5170.81543 1782.28706,5171.1071 C1781.2217,5171.39878 1780.1216,5170.77158 1779.82993,5169.70621 C1778.44457,5164.64607 1776.83087,5159.62197 1774.99391,5154.64842 C1774.61121,5153.61227 1775.14094,5152.46206 1776.1771,5152.07936 C1777.21325,5151.69666 1778.36346,5152.22639 1778.74616,5153.26254 Z M1064.42019,5147.49815 C1069.62383,5147.66878 1074.92075,5147.70641 1080.32171,5147.60915 C1081.4261,5147.58927 1082.33751,5148.46843 1082.35739,5149.57282 C1082.37728,5150.67721 1081.49812,5151.58862 1080.39373,5151.6085 C1074.92544,5151.70697 1069.5608,5151.66886 1064.2891,5151.496 C1063.18512,5151.4598 1062.31952,5150.53551 1062.35572,5149.43153 C1062.39191,5148.32756 1063.31621,5147.46195 1064.42019,5147.49815 Z M1106.29562,5148.18408 C1106.38929,5149.28467 1105.57301,5150.25281 1104.47242,5150.34647 C1099.01967,5150.81052 1093.67301,5151.15063 1088.42439,5151.36864 C1087.32077,5151.41447 1086.38895,5150.55697 1086.34311,5149.45336 C1086.29728,5148.34974 1087.15478,5147.41792 1088.25839,5147.37208 C1093.44878,5147.1565 1098.73771,5146.82006 1104.13323,5146.36088 C1105.23382,5146.26722 1106.20196,5147.08349 1106.29562,5148.18408 Z M1040.66657,5145.73108 C1045.85538,5146.34216 1051.12328,5146.80924 1056.48478,5147.13085 C1057.58737,5147.19699 1058.42758,5148.14443 1058.36144,5149.24702 C1058.2953,5150.34961 1057.34786,5151.18982 1056.24527,5151.12368 C1050.80766,5150.7975 1045.46362,5150.32366 1040.19873,5149.70362 C1039.10174,5149.57443 1038.31719,5148.58042 1038.44638,5147.48343 C1038.57557,5146.38644 1039.56959,5145.60189 1040.66657,5145.73108 Z M1130.12466,5145.34417 C1130.28019,5146.43774 1129.51976,5147.45033 1128.4262,5147.60586 C1123.00852,5148.37639 1117.69508,5149.03515 1112.47972,5149.58384 C1111.38121,5149.69941 1110.39701,5148.90258 1110.28144,5147.80407 C1110.16587,5146.70557 1110.9627,5145.72136 1112.06121,5145.60579 C1117.22781,5145.06224 1122.49302,5144.40945 1127.86297,5143.64571 C1128.95653,5143.49018 1129.96912,5144.25061 1130.12466,5145.34417 Z M1017.13546,5141.87444 C1022.28647,5142.96293 1027.49008,5143.89844 1032.76605,5144.68078 C1033.85867,5144.8428 1034.61308,5145.85988 1034.45106,5146.95251 C1034.28904,5148.04513 1033.27195,5148.79953 1032.17933,5148.63751 C1026.82265,5147.8432 1021.53891,5146.89329 1016.30846,5145.78801 C1015.22776,5145.55964 1014.5368,5144.49843 1014.76517,5143.41773 C1014.99354,5142.33702 1016.05476,5141.64607 1017.13546,5141.87444 Z M1768.92846,5131.08519 C1771.42582,5135.89656 1773.71328,5140.78546 1775.7843,5145.73794 C1776.21045,5146.757 1775.7298,5147.92856 1774.71075,5148.35471 C1773.69169,5148.78086 1772.52013,5148.30021 1772.09398,5147.28116 C1770.0656,5142.43067 1767.8249,5137.64169 1765.37822,5132.92795 C1764.86935,5131.94758 1765.25158,5130.74032 1766.23196,5130.23145 C1767.21233,5129.72258 1768.41959,5130.10481 1768.92846,5131.08519 Z M1153.80763,5141.29096 C1154.01457,5142.37597 1153.30274,5143.4233 1152.21773,5143.63023 C1146.84392,5144.65513 1141.57026,5145.57932 1136.39198,5146.40428 C1135.30116,5146.57806 1134.27601,5145.83466 1134.10223,5144.74384 C1133.92845,5143.65303 1134.67185,5142.62788 1135.76267,5142.4541 C1140.90047,5141.63559 1146.13412,5140.71841 1151.46835,5139.70106 C1152.55337,5139.49412 1153.6007,5140.20594 1153.80763,5141.29096 Z M994.079621,5135.89397 C999.161341,5137.45753 1004.25378,5138.8626 1009.38405,5140.11192 C1010.45726,5140.37326 1011.1154,5141.45513 1010.85405,5142.52834 C1010.59271,5143.60154 1009.51084,5144.25969 1008.43763,5143.99834 C1003.22942,5142.73004 998.060346,5141.30383 992.903312,5139.7171 C991.847584,5139.39227 991.255074,5138.27311 991.579903,5137.21738 C991.904732,5136.16165 993.023893,5135.56914 994.079621,5135.89397 Z M1177.2692,5136.24055 C1177.51872,5137.31657 1176.84872,5138.39113 1175.7727,5138.64066 C1170.45131,5139.87466 1165.22479,5141.01787 1160.08939,5142.07155 C1159.00737,5142.29356 1157.95023,5141.59638 1157.72822,5140.51435 C1157.50621,5139.43232 1158.20339,5138.37519 1159.28542,5138.15318 C1164.38723,5137.10639 1169.58054,5135.97045 1174.8691,5134.74406 C1175.94511,5134.49453 1177.01968,5135.16454 1177.2692,5136.24055 Z M971.599663,5127.94239 C976.604119,5129.93622 981.560307,5131.76745 986.506889,5133.44475 C987.552958,5133.79945 988.11342,5134.935 987.758717,5135.98107 C987.404014,5137.02714 986.268464,5137.5876 985.222395,5137.2329 C980.208695,5135.53284 975.18726,5133.6775 970.119197,5131.65834 C969.093068,5131.24952 968.59264,5130.08626 969.001459,5129.06013 C969.410278,5128.034 970.573534,5127.53358 971.599663,5127.94239 Z M1200.51781,5130.36246 C1200.8028,5131.42963 1200.16872,5132.52577 1199.10155,5132.81077 C1193.83071,5134.21837 1188.64927,5135.54372 1183.55421,5136.78791 C1182.48117,5137.04994 1181.39888,5136.39249 1181.13685,5135.31945 C1180.87482,5134.24641 1181.53227,5133.16412 1182.60531,5132.90209 C1187.67234,5131.66474 1192.82607,5130.34649 1198.0695,5128.9462 C1199.13667,5128.66121 1200.23281,5129.29529 1200.51781,5130.36246 Z M605.491547,5110.95931 L605.634044,5111.02381 L618.251232,5117.32998 C621.640501,5112.67942 627.988942,5111.01821 633.307378,5113.67663 C639.235478,5116.63978 641.639041,5123.84757 638.675887,5129.77567 C635.712732,5135.70377 628.504946,5138.10733 622.576846,5135.14418 C617.258403,5132.48576 614.776834,5126.41087 616.462407,5120.9087 L603.845622,5114.60173 C602.857605,5114.10787 602.457011,5112.90657 602.950871,5111.91856 C603.421213,5110.97759 604.533222,5110.56943 605.491547,5110.95931 Z M621.031499,5120.37952 L620.992674,5120.44987 C620.957839,5120.58919 620.907367,5120.72688 620.840495,5120.86067 C620.773831,5120.99404 620.694277,5121.1167 620.604096,5121.22791 C618.919089,5125.09954 620.543558,5129.65597 624.365268,5131.56625 C628.317335,5133.54169 633.122525,5131.93931 635.097962,5127.98725 C637.073398,5124.03518 635.471023,5119.22999 631.518956,5117.25455 C627.721872,5115.35658 623.137264,5116.76132 621.031499,5120.37952 Z M1223.60953,5123.77962 C1223.92434,5124.83838 1223.32125,5125.95188 1222.26249,5126.26669 C1217.04128,5127.81916 1211.90406,5129.2968 1206.84835,5130.70055 C1205.78405,5130.99606 1204.6817,5130.37283 1204.38618,5129.30853 C1204.09067,5128.24422 1204.7139,5127.14187 1205.77821,5126.84636 C1210.81037,5125.44915 1215.9243,5123.97821 1221.12246,5122.43259 C1222.18122,5122.11778 1223.29472,5122.72086 1223.60953,5123.77962 Z M949.744218,5118.37879 C954.690884,5120.72266 959.507904,5122.89451 964.256262,5124.91568 C965.272591,5125.34829 965.745792,5126.52288 965.313185,5127.53921 C964.880579,5128.55554 963.705984,5129.02874 962.689655,5128.59613 C957.890696,5126.55343 953.025122,5124.35968 948.031449,5121.99354 C947.033263,5121.52057 946.60749,5120.32796 947.080458,5119.32978 C947.553427,5118.33159 948.746033,5117.90582 949.744218,5118.37879 Z M1756.46166,5110.24771 C1759.5143,5114.72143 1762.37656,5119.29465 1765.04105,5123.95469 C1765.58932,5124.91359 1765.25644,5126.13538 1764.29755,5126.68365 C1763.33866,5127.23192 1762.11686,5126.89904 1761.56859,5125.94015 C1758.95673,5121.37215 1756.15065,5116.88869 1753.15757,5112.50225 C1752.53499,5111.58985 1752.76994,5110.34551 1753.68234,5109.72294 C1754.59474,5109.10036 1755.83908,5109.33531 1756.46166,5110.24771 Z M1246.49996,5116.61678 C1246.83999,5117.66771 1246.26368,5118.7953 1245.21275,5119.13532 C1240.03893,5120.80929 1234.94397,5122.41484 1229.92581,5123.9528 C1228.86973,5124.27647 1227.75122,5123.68272 1227.42755,5122.62664 C1227.10388,5121.57056 1227.69762,5120.45205 1228.75371,5120.12838 C1233.75192,5118.59653 1238.82714,5116.99721 1243.98142,5115.32956 C1245.03235,5114.98954 1246.15994,5115.56584 1246.49996,5116.61678 Z M928.367372,5107.64176 C933.321142,5110.25108 938.012577,5112.65233 942.562899,5114.90129 C943.553127,5115.3907 943.959119,5116.59018 943.469708,5117.58041 C942.980297,5118.57064 941.780814,5118.97663 940.790586,5118.48722 C936.207958,5116.2223 931.486177,5113.80551 926.503228,5111.18082 C925.525943,5110.66605 925.150999,5109.4565 925.665769,5108.47922 C926.180538,5107.50193 927.390087,5107.12699 928.367372,5107.64176 Z M1269.22515,5108.95558 C1269.5867,5109.9993 1269.03369,5111.1385 1267.98997,5111.50005 C1262.85849,5113.27762 1257.80116,5114.9923 1252.81625,5116.64479 C1251.76779,5116.99236 1250.63608,5116.42417 1250.28852,5115.37571 C1249.94095,5114.32724 1250.50914,5113.19554 1251.55761,5112.84798 C1256.52547,5111.20113 1261.56592,5109.49218 1266.68068,5107.7204 C1267.7244,5107.35885 1268.8636,5107.91186 1269.22515,5108.95558 Z M584.023998,5100.22877 L584.166494,5100.29327 L598.478194,5107.44696 C599.466211,5107.94082 599.866805,5109.14212 599.372946,5110.13013 C598.902604,5111.0711 597.790594,5111.47926 596.832269,5111.08939 L596.689772,5111.02489 L582.378072,5103.8712 C581.390056,5103.37734 580.989462,5102.17604 581.483321,5101.18803 C581.953663,5100.24706 583.065672,5099.8389 584.023998,5100.22877 Z M1291.85317,5100.84693 C1292.2333,5101.88403 1291.70072,5103.03292 1290.66362,5103.41305 C1285.56779,5105.28083 1280.54187,5107.09043 1275.58438,5108.84249 C1274.54294,5109.21056 1273.40031,5108.66468 1273.03224,5107.62324 C1272.66418,5106.58179 1273.21006,5105.43916 1274.2515,5105.0711 C1279.19429,5103.32423 1284.20565,5101.51987 1289.28705,5099.65738 C1290.32415,5099.27725 1291.47304,5099.80983 1291.85317,5100.84693 Z M907.32038,5096.22317 C912.504212,5099.09576 917.026778,5101.57308 921.330817,5103.89164 C922.303264,5104.41549 922.666923,5105.62848 922.143072,5106.60093 C921.61922,5107.57337 920.406231,5107.93703 919.433784,5107.41318 C915.114349,5105.08633 910.578323,5102.60164 905.381581,5099.72189 C904.415436,5099.18651 904.066235,5097.96928 904.601619,5097.00313 C905.137004,5096.03698 906.354234,5095.68778 907.32038,5096.22317 Z M1741.68843,5091.08788 C1745.23399,5095.17715 1748.60868,5099.38471 1751.80464,5103.69943 C1752.46209,5104.58702 1752.27552,5105.83953 1751.38793,5106.49699 C1750.50033,5107.15444 1749.24782,5106.96787 1748.59037,5106.08027 C1745.4554,5101.84791 1742.14479,5097.72024 1738.66623,5093.70824 C1737.94264,5092.87369 1738.03259,5091.61056 1738.86714,5090.88696 C1739.7017,5090.16337 1740.96483,5090.25332 1741.68843,5091.08788 Z M1314.28228,5092.39004 C1314.67849,5093.4211 1314.16384,5094.57813 1313.13277,5094.97434 C1308.07302,5096.91865 1303.07923,5098.80898 1298.15012,5100.6459 C1297.11509,5101.03162 1295.96334,5100.50526 1295.57761,5099.47022 C1295.19189,5098.43519 1295.71826,5097.28344 1296.75329,5096.89772 C1301.66963,5095.06556 1306.65078,5093.18001 1311.69798,5091.24052 C1312.72904,5090.84432 1313.88608,5091.35897 1314.28228,5092.39004 Z M562.556448,5089.49824 L562.698944,5089.56274 L577.010644,5096.71643 C577.998661,5097.21029 578.399255,5098.41159 577.905396,5099.3996 C577.435054,5100.34057 576.323044,5100.74873 575.364719,5100.35885 L575.222222,5100.29435 L560.910523,5093.14067 C559.922506,5092.64681 559.521912,5091.44551 560.015771,5090.45749 C560.486113,5089.51653 561.598123,5089.10837 562.556448,5089.49824 Z M886.359242,5084.53158 C888.802915,5085.89456 898.117823,5091.10118 900.331038,5092.33574 C901.29568,5092.87382 901.641471,5094.09203 901.103383,5095.05667 C900.565296,5096.02131 899.347092,5096.3671 898.382449,5095.82902 C896.167179,5094.59331 886.852361,5089.38674 884.41079,5088.02493 C883.446126,5087.48688 883.100288,5086.26869 883.638338,5085.30403 C884.176389,5084.33937 885.394579,5083.99353 886.359242,5084.53158 Z M1336.64057,5083.58897 C1337.05087,5084.61451 1336.55213,5085.77848 1335.52659,5086.18879 C1330.49872,5088.20035 1325.53324,5090.16161 1320.62903,5092.07306 C1319.59987,5092.47418 1318.44039,5091.96506 1318.03927,5090.93589 C1317.63815,5089.90673 1318.14727,5088.74726 1319.17643,5088.34613 C1324.06947,5086.43904 1329.02388,5084.48216 1334.04076,5082.47499 C1335.0663,5082.06468 1336.23027,5082.56343 1336.64057,5083.58897 Z M541.088898,5078.76771 L541.231395,5078.83221 L555.543095,5085.9859 C556.531111,5086.47976 556.931705,5087.68106 556.437846,5088.66907 C555.967504,5089.61004 554.855494,5090.0182 553.897169,5089.62832 L553.754673,5089.56382 L539.442973,5082.41014 C538.454956,5081.91628 538.054362,5080.71498 538.548221,5079.72696 C539.018563,5078.78599 540.130573,5078.37784 541.088898,5078.76771 Z M1724.80497,5073.70447 C1728.78161,5077.3644 1732.6068,5081.15801 1736.27261,5085.07581 C1737.02729,5085.88237 1736.98523,5087.148 1736.17868,5087.90268 C1735.37212,5088.65736 1734.10649,5088.61531 1733.35181,5087.80875 C1729.75405,5083.96368 1725.99958,5080.2402 1722.09618,5076.64767 C1721.28344,5075.89966 1721.23096,5074.63441 1721.97898,5073.82167 C1722.72699,5073.00893 1723.99223,5072.95646 1724.80497,5073.70447 Z M865.316278,5072.93006 C869.744076,5075.33072 874.299313,5077.83245 879.349106,5080.63214 C880.31514,5081.16772 880.664089,5082.38503 880.128504,5083.35106 C879.59292,5084.3171 878.375617,5084.66604 877.409582,5084.13046 C872.370082,5081.33648 867.825588,5078.84065 863.409753,5076.44647 C862.438723,5075.92 862.078337,5074.70604 862.604809,5073.73501 C863.131282,5072.76397 864.345248,5072.40359 865.316278,5072.93006 Z M1358.87908,5074.50561 C1359.30179,5075.5261 1358.81719,5076.69604 1357.7967,5077.11874 C1352.79831,5079.18917 1347.85903,5081.21254 1342.97791,5083.18929 C1341.95411,5083.60391 1340.78804,5083.11007 1340.37343,5082.08627 C1339.95881,5081.06247 1340.45265,5079.8964 1341.47645,5079.48178 C1346.34773,5077.50902 1351.27725,5075.48965 1356.26595,5073.42323 C1357.28644,5073.00053 1358.45638,5073.48512 1358.87908,5074.50561 Z M519.621348,5068.03718 L519.763845,5068.10168 L534.075545,5075.25537 C535.063561,5075.74923 535.464155,5076.95052 534.970296,5077.93854 C534.499954,5078.87951 533.387945,5079.28767 532.42962,5078.89779 L532.287123,5078.83329 L517.975423,5071.6796 C516.987406,5071.18574 516.586812,5069.98445 517.080671,5068.99643 C517.551013,5068.05546 518.663023,5067.6473 519.621348,5068.03718 Z M1380.96408,5065.19189 C1381.39775,5066.20776 1380.92579,5067.38285 1379.90991,5067.81653 C1374.93777,5069.93912 1370.02181,5072.0175 1365.16116,5074.05209 C1364.14225,5074.47858 1362.97052,5073.99834 1362.54402,5072.97943 C1362.11752,5071.96052 1362.59777,5070.78879 1363.61668,5070.36229 C1368.4686,5068.33136 1373.3759,5066.25664 1378.33944,5064.13772 C1379.35531,5063.70405 1380.5304,5064.17601 1380.96408,5065.19189 Z M844.048926,5061.69064 C848.701277,5064.07756 853.40635,5066.54306 858.250749,5069.12847 C859.225225,5069.64853 859.593595,5070.8601 859.073527,5071.83458 C858.553458,5072.80905 857.341891,5073.17742 856.367416,5072.65735 C851.541487,5070.0818 846.855459,5067.62629 842.222991,5065.24957 C841.240221,5064.74535 840.852277,5063.53991 841.356495,5062.55714 C841.860713,5061.57437 843.066155,5061.18642 844.048926,5061.69064 Z M1706.08229,5058.2921 C1710.43039,5061.48835 1714.64573,5064.83035 1718.72064,5068.31023 C1719.56061,5069.02754 1719.66004,5070.28996 1718.94273,5071.12992 C1718.22542,5071.96989 1716.963,5072.06932 1716.12303,5071.35201 C1712.12205,5067.93526 1707.98291,5064.65368 1703.71315,5061.51502 C1702.82317,5060.8608 1702.63204,5059.60897 1703.28626,5058.71899 C1703.94048,5057.829 1705.19231,5057.63788 1706.08229,5058.2921 Z M498.153798,5057.30665 L498.296295,5057.37115 L512.607995,5064.52484 C513.596012,5065.01869 513.996606,5066.21999 513.502747,5067.20801 C513.032405,5068.14898 511.920395,5068.55714 510.96207,5068.16726 L510.819573,5068.10276 L496.507873,5060.94907 C495.519857,5060.45521 495.119263,5059.25392 495.613122,5058.2659 C496.083464,5057.32493 497.195473,5056.91677 498.153798,5057.30665 Z M1403.00688,5055.6323 C1403.45035,5056.64394 1402.98977,5057.82354 1401.97813,5058.26701 C1397.0301,5060.4361 1392.13554,5062.56355 1387.29369,5064.64971 C1386.27927,5065.08678 1385.1026,5064.61875 1384.66553,5063.60433 C1384.22846,5062.58991 1384.69649,5061.41325 1385.71091,5060.97618 C1390.54498,5058.89337 1395.43181,5056.76929 1400.37217,5054.60356 C1401.3838,5054.16008 1402.5634,5054.62067 1403.00688,5055.6323 Z M822.479383,5051.01781 C827.264475,5053.29391 832.052325,5055.63452 836.880084,5058.05446 C837.867544,5058.54943 838.266788,5059.75118 837.771818,5060.73864 C837.276848,5061.7261 836.075101,5062.12534 835.08764,5061.63037 C830.284073,5059.22256 825.520938,5056.89403 820.761193,5054.62999 C819.763718,5054.15552 819.339734,5052.96228 819.8142,5051.9648 C820.288665,5050.96733 821.481908,5050.54334 822.479383,5051.01781 Z M491.449649,5037.03521 C491.908414,5038.04 491.465771,5039.22645 490.460978,5039.68522 C486.347946,5041.56313 482.24711,5043.52456 478.158465,5045.56952 L476.359,5046.475 L476.394936,5046.48283 C476.493047,5046.50612 476.590416,5046.53713 476.686249,5046.57612 L476.828745,5046.64062 L491.140445,5053.7943 C492.128462,5054.28816 492.529056,5055.48946 492.035197,5056.47748 C491.564855,5057.41845 490.452845,5057.8266 489.49452,5057.43673 L489.352023,5057.37223 L475.040323,5050.21854 C474.052307,5049.72468 473.651713,5048.52338 474.145572,5047.53537 C474.286675,5047.25308 474.485527,5047.01874 474.720656,5046.83952 L474.811,5046.775 L474.80084,5046.77323 C474.275451,5046.66306 473.798537,5046.34327 473.502691,5045.8572 L473.426594,5045.72054 C472.926737,5044.73555 473.320021,5043.53184 474.305017,5043.03198 C479.119309,5040.58887 483.950854,5038.26038 488.799644,5036.04654 C489.804436,5035.58777 490.990884,5036.03042 491.449649,5037.03521 Z M1685.84251,5045.0334 C1690.51649,5047.74916 1695.07464,5050.62044 1699.50968,5053.64079 C1700.42264,5054.26254 1700.65872,5055.50667 1700.03697,5056.41963 C1699.41522,5057.33259 1698.17109,5057.56867 1697.25813,5056.94693 C1692.9019,5053.98024 1688.42446,5051.15981 1683.83295,5048.49196 C1682.87789,5047.93704 1682.55352,5046.71295 1683.10844,5045.7579 C1683.66337,5044.80284 1684.88745,5044.47847 1685.84251,5045.0334 Z M1424.93018,5045.887 C1425.38243,5046.89474 1424.93211,5048.0783 1423.92436,5048.53054 C1418.9983,5050.74121 1414.12324,5052.91252 1409.29852,5055.04479 C1408.28822,5055.4913 1407.10724,5055.03424 1406.66074,5054.02394 C1406.21424,5053.01364 1406.67129,5051.83267 1407.6816,5051.38617 C1412.49934,5049.25697 1417.36746,5047.08876 1422.28664,5044.88118 C1423.29438,5044.42893 1424.47794,5044.87925 1424.93018,5045.887 Z M800.584854,5041.06771 C803.284474,5042.23075 805.988081,5043.42114 808.695675,5044.6389 C810.872675,5045.61801 813.04643,5046.60923 815.21895,5047.61322 C816.221628,5048.07659 816.658825,5049.26505 816.195458,5050.26773 C815.73209,5051.27041 814.543624,5051.70761 813.540946,5051.24424 C811.380761,5050.24595 809.219434,5049.2604 807.054961,5048.28692 C804.366609,5047.07782 801.68236,5045.89594 799.002216,5044.7413 C797.987782,5044.30426 797.519707,5043.12762 797.95674,5042.11318 C798.393774,5041.09875 799.570421,5040.63067 800.584854,5041.06771 Z M1447.16087,5036.7507 C1447.55529,5037.78245 1447.03862,5038.93858 1446.00687,5039.33299 C1441.0952,5041.21059 1436.17065,5043.20579 1431.23442,5045.31902 C1430.21899,5045.75373 1429.04342,5045.28296 1428.60871,5044.26753 C1428.17399,5043.2521 1428.64476,5042.07653 1429.66019,5041.64182 C1434.64452,5039.50799 1439.61772,5037.49309 1444.57858,5035.59669 C1445.61033,5035.20228 1446.76646,5035.71894 1447.16087,5036.7507 Z M1664.32287,5034.00486 C1669.24862,5036.21178 1674.07508,5038.57985 1678.79564,5041.10396 C1679.76971,5041.6248 1680.13712,5042.83665 1679.61628,5043.81072 C1679.09545,5044.78478 1677.88359,5045.1522 1676.90952,5044.63136 C1672.27103,5042.15114 1667.52816,5039.82408 1662.68737,5037.65522 C1661.67935,5037.20359 1661.22831,5036.02031 1661.67994,5035.01229 C1662.13157,5034.00427 1663.31485,5033.55323 1664.32287,5034.00486 Z M778.234936,5032.02968 C783.199523,5033.905 788.177813,5035.8744 793.169807,5037.93785 C794.190607,5038.3598 794.676071,5039.52938 794.254121,5040.55018 C793.832171,5041.57098 792.662591,5042.05644 791.641792,5041.63449 C786.687575,5039.58665 781.747463,5037.63237 776.821457,5035.77161 C775.78815,5035.38129 775.266907,5034.22721 775.657229,5033.19391 C776.04755,5032.1606 777.201629,5031.63936 778.234936,5032.02968 Z M1469.8898,5028.99792 C1470.21831,5030.05251 1469.62972,5031.17373 1468.57513,5031.50225 C1463.55265,5033.06681 1458.51329,5034.75622 1453.45849,5036.571 C1452.41889,5036.94424 1451.27356,5036.40405 1450.90032,5035.36445 C1450.52708,5034.32486 1451.06727,5033.17952 1452.10687,5032.80628 C1457.2151,5030.97231 1462.30846,5029.26481 1467.38547,5027.68326 C1468.44006,5027.35474 1469.56128,5027.94334 1469.8898,5028.99792 Z M513.61513,5027.90206 C514.008,5028.9344 513.489607,5030.08976 512.457266,5030.48263 C507.527179,5032.35884 502.614288,5034.35253 497.718579,5036.4637 C496.704298,5036.90109 495.527488,5036.43343 495.0901,5035.41915 C494.652711,5034.40487 495.120375,5033.22806 496.134656,5032.79067 C501.083482,5030.65659 506.050121,5028.64109 511.034557,5026.7442 C512.066898,5026.35133 513.222259,5026.86972 513.61513,5027.90206 Z M1641.74376,5025.25594 C1646.87471,5026.94828 1651.92115,5028.80521 1656.8772,5030.82274 C1657.90025,5031.23921 1658.39198,5032.40616 1657.97551,5033.42921 C1657.55905,5034.45226 1656.39209,5034.94399 1655.36904,5034.52753 C1650.49699,5032.5442 1645.53567,5030.71858 1640.49083,5029.05465 C1639.44185,5028.70866 1638.87196,5027.57781 1639.21794,5026.52883 C1639.56393,5025.47985 1640.69478,5024.90995 1641.74376,5025.25594 Z M755.567899,5024.09039 C760.621864,5025.72049 765.69027,5027.44975 770.773118,5029.27817 C771.812485,5029.65206 772.351965,5030.79773 771.978079,5031.83709 C771.604194,5032.87646 770.458527,5033.41594 769.41916,5033.04206 C764.377923,5031.2286 759.351547,5029.51368 754.340032,5027.89727 C753.28879,5027.5582 752.711459,5026.43113 753.050525,5025.37989 C753.389591,5024.32865 754.516658,5023.75132 755.567899,5024.09039 Z M1493.04653,5022.77272 C1493.30238,5023.84725 1492.63872,5024.92574 1491.56419,5025.18159 C1486.44632,5026.40019 1481.30675,5027.75085 1476.1472,5029.23425 C1475.08564,5029.53946 1473.97765,5028.92631 1473.67244,5027.86474 C1473.36724,5026.80317 1473.98039,5025.69519 1475.04195,5025.38998 C1480.26054,5023.8896 1485.4597,5022.52329 1490.63766,5021.29038 C1491.71219,5021.03453 1492.79068,5021.69819 1493.04653,5022.77272 Z M536.370606,5020.25002 C536.692799,5021.30656 536.097496,5022.42424 535.040961,5022.74643 C529.986769,5024.28772 524.950323,5025.94986 519.931605,5027.73286 C518.89077,5028.10264 517.747242,5027.55865 517.377463,5026.51781 C517.007684,5025.47698 517.551682,5024.33345 518.592517,5023.96367 C523.668128,5022.16045 528.762028,5020.47935 533.8742,5018.92038 C534.930735,5018.59819 536.048414,5019.19349 536.370606,5020.25002 Z M1618.42543,5018.83645 C1623.70479,5020.01299 1628.91308,5021.35491 1634.04511,5022.85909 C1635.10509,5023.16977 1635.71252,5024.2809 1635.40185,5025.34088 C1635.09117,5026.40086 1633.98004,5027.00829 1632.92006,5026.69761 C1627.8723,5025.21813 1622.74905,5023.89812 1617.55535,5022.74067 C1616.47723,5022.5004 1615.79801,5021.43164 1616.03828,5020.35351 C1616.27855,5019.27539 1617.34731,5018.59618 1618.42543,5018.83645 Z M732.424769,5017.29227 C737.563256,5018.65237 742.716943,5020.11683 747.885827,5021.68562 C748.942787,5022.00641 749.539567,5023.1233 749.218773,5024.18026 C748.897978,5025.23722 747.781088,5025.834 746.724127,5025.51321 C741.600883,5023.95827 736.493261,5022.50691 731.401258,5021.1591 C730.33346,5020.87647 729.69696,5019.78173 729.979595,5018.71393 C730.26223,5017.64613 731.356972,5017.00963 732.424769,5017.29227 Z M1516.58409,5018.21477 C1516.76025,5019.3052 1516.0191,5020.33198 1514.92867,5020.50815 C1509.73688,5021.34692 1504.51759,5022.3247 1499.2729,5023.44234 C1498.19259,5023.67255 1497.13019,5022.98341 1496.89998,5021.9031 C1496.66977,5020.82279 1497.35891,5019.7604 1498.43922,5019.53018 C1503.74867,5018.39874 1509.03322,5017.40874 1514.29071,5016.55935 C1515.38114,5016.38318 1516.40792,5017.12434 1516.58409,5018.21477 Z M1594.57494,5014.71445 C1599.95051,5015.38274 1605.26697,5016.21491 1610.51988,5017.20856 C1611.6052,5017.41387 1612.3186,5018.46013 1612.1133,5019.54545 C1611.90799,5020.63077 1610.86173,5021.34417 1609.77641,5021.13886 C1604.60646,5020.1609 1599.37338,5019.34178 1594.08146,5018.68389 C1592.98533,5018.54762 1592.20721,5017.54856 1592.34348,5016.45243 C1592.47975,5015.3563 1593.47881,5014.57818 1594.57494,5014.71445 Z M559.580816,5014.18809 C559.828637,5015.2645 559.156933,5016.338 558.080523,5016.58582 C552.925391,5017.77269 547.7884,5019.08262 542.669529,5020.51563 C541.605854,5020.8134 540.502182,5020.19252 540.20441,5019.12884 C539.906637,5018.06516 540.527524,5016.96149 541.5912,5016.66372 C546.769929,5015.21395 551.967231,5013.88864 557.183083,5012.6878 C558.259493,5012.43998 559.332995,5013.11168 559.580816,5014.18809 Z M1540.43457,5015.47245 C1540.524,5016.5734 1539.70401,5017.53839 1538.60307,5017.62782 C1533.3652,5018.05331 1528.09295,5018.62417 1522.78886,5019.3415 C1521.69425,5019.48953 1520.68689,5018.72218 1520.53886,5017.62758 C1520.39082,5016.53298 1521.15817,5015.52562 1522.25277,5015.37758 C1527.62724,5014.65074 1532.97025,5014.07222 1538.2792,5013.64095 C1539.38014,5013.55152 1540.34513,5014.37151 1540.43457,5015.47245 Z M708.929338,5011.77887 C714.141995,5012.84408 719.370598,5014.01867 724.61514,5015.30262 C725.688025,5015.56528 726.344842,5016.64796 726.082181,5017.72084 C725.81952,5018.79373 724.736846,5019.45054 723.663961,5019.18788 C718.469123,5017.9161 713.290633,5016.75277 708.128485,5015.69788 C707.04628,5015.47673 706.348257,5014.42015 706.569407,5013.33794 C706.790556,5012.25574 707.847134,5011.55772 708.929338,5011.77887 Z M1570.44509,5012.83559 C1575.85039,5013.01139 1581.20743,5013.34659 1586.51248,5013.83938 C1587.61231,5013.94155 1588.42108,5014.91596 1588.31892,5016.01579 C1588.21675,5017.11563 1587.24234,5017.9244 1586.1425,5017.82223 C1580.91737,5017.33686 1575.64035,5017.00667 1570.31507,5016.83348 C1569.21108,5016.79757 1568.34523,5015.87351 1568.38113,5014.76952 C1568.41704,5013.66554 1569.3411,5012.79969 1570.44509,5012.83559 Z M1562.45021,5012.69216 C1563.55477,5012.69598 1564.4471,5013.5945 1564.44328,5014.69906 C1564.43946,5015.80362 1563.54094,5016.69595 1562.43638,5016.69213 C1557.18611,5016.67398 1551.89335,5016.80668 1546.56115,5017.09165 C1545.45815,5017.15059 1544.51621,5016.30422 1544.45727,5015.20123 C1544.39832,5014.09823 1545.24469,5013.15629 1546.34769,5013.09735 C1551.75545,5012.80835 1557.124,5012.67375 1562.45021,5012.69216 Z M583.1812,5009.77245 C583.352099,5010.86372 582.605991,5011.88691 581.514723,5012.05781 C576.279416,5012.87769 571.062504,5013.82181 565.863961,5014.8902 C564.782005,5015.11256 563.724648,5014.41571 563.502289,5013.33376 C563.279929,5012.2518 563.976771,5011.19444 565.058727,5010.97208 C570.31909,5009.891 575.598138,5008.93562 580.895843,5008.10597 C581.987112,5007.93507 583.010301,5008.68118 583.1812,5009.77245 Z M685.139147,5007.6611 C690.412615,5008.40743 695.702742,5009.26785 701.009516,5010.24235 C702.09592,5010.44185 702.814897,5011.48429 702.615397,5012.57069 C702.415896,5013.65709 701.373465,5014.37607 700.287061,5014.17657 C695.033907,5013.21191 689.797767,5012.36027 684.57863,5011.62163 C683.484959,5011.46685 682.72384,5010.45478 682.878622,5009.36111 C683.033405,5008.26744 684.045476,5007.50632 685.139147,5007.6611 Z M607.044881,5007.04391 C607.137832,5008.14456 606.320929,5009.11217 605.220277,5009.20512 C599.929623,5009.65192 594.657443,5010.22296 589.403709,5010.91823 C588.308687,5011.06315 587.303519,5010.29293 587.158605,5009.19791 C587.01369,5008.10289 587.783904,5007.09772 588.878926,5006.95281 C594.195246,5006.24925 599.53017,5005.67141 604.883673,5005.21931 C605.984325,5005.12636 606.951931,5005.94326 607.044881,5007.04391 Z M661.003336,5005.03858 L661.152583,5005.04447 C666.470556,5005.4504 671.805845,5005.97465 677.158433,5006.6172 C678.255128,5006.74885 679.03745,5007.74463 678.905797,5008.84132 C678.774143,5009.93802 677.77837,5010.72034 676.681674,5010.58869 C671.386242,5009.95299 666.108403,5009.43439 660.84814,5009.03286 C659.746775,5008.9488 658.922093,5007.98781 659.006163,5006.88644 C659.082589,5005.8852 659.88374,5005.11263 660.856244,5005.0436 L661.003336,5005.03858 Z M629.033288,5004.03441 C630.137749,5004.0189 631.045664,5004.90167 631.061173,5006.00614 C631.076682,5007.1106 630.193912,5008.01851 629.089451,5008.03402 C623.7723,5008.10868 618.473499,5008.30625 613.193022,5008.62671 C612.090481,5008.69362 611.142453,5007.85408 611.075542,5006.75153 C611.008631,5005.64899 611.848175,5004.70097 612.950716,5004.63405 C618.293258,5004.30983 623.654124,5004.10995 629.033288,5004.03441 Z M637.024228,5004.01355 C642.366231,5004.06047 647.726116,5004.2292 653.103862,5004.51972 C654.206823,5004.57931 655.052646,5005.52174 654.99306,5006.6247 C654.933474,5007.72766 653.991044,5008.57348 652.888083,5008.5139 C647.570381,5008.22661 642.270726,5008.05979 636.989099,5008.0134 C635.884572,5008.0037 634.99704,5007.10044 635.00674,5005.99591 C635.016441,5004.89138 635.919701,5004.00385 637.024228,5004.01355 Z"></path>
        </g>
    </g>
</svg>