<?xml version="1.0" encoding="UTF-8"?>
<svg width="232px" height="56px" viewBox="0 0 232 56" version="1.1" xmlns="http://www.w3.org/2000/svg" xmlns:xlink="http://www.w3.org/1999/xlink">
    <title>wolf_boss_logo</title>
    <g id="02_assets" stroke="none" stroke-width="1" fill="none" fill-rule="evenodd">
        <g id="00_logo" transform="translate(-218.000000, -1197.000000)">
            <g id="wolf_boss_logo" transform="translate(218.000000, 1197.000000)">
                <rect id="Rectangle" x="0" y="0" width="232" height="56"></rect>
                <path d="M26.1739295,32.0430755 C27.6874466,27.5844708 29.2697804,23.5935487 30.3563616,19.4713313 C31.0200816,16.9540849 32.1505787,15.9603159 34.6614867,16.4189437 C35.2382803,16.5244326 35.8512931,16.434337 36.8373656,16.434337 C34.2599045,24.367285 31.7625787,32.0543941 29.2833627,39.6844576 C23.5167858,40.1734192 23.5321791,40.168439 21.8276048,34.9772975 C20.7446456,31.6804291 19.6091683,28.4007649 18.3799733,24.7675091 C16.6378215,29.9550287 15.0034223,34.8229124 13.3767198,39.6668007 C13.186568,39.7202243 13.0448598,39.7885883 12.8999823,39.796285 C7.36611488,40.0887564 7.39463764,40.0792488 5.76114394,34.8645647 C4.03619632,29.3587673 2.2456011,23.8733433 0.49122524,18.3761481 C0.316919509,17.8296883 0.191962674,17.2673825 -1.0658141e-14,16.5475225 L5.71541698,16.5475225 C7.33397019,21.568433 8.95705082,26.6047368 10.6552866,31.8723917 C12.3326963,27.0850962 14.0368178,22.5911775 15.4629556,18.0103324 C16.2828717,15.3758258 18.2455089,16.780232 19.7078661,16.4556158 C21.0430027,16.1590697 21.3916141,17.0238072 21.7388674,18.1819217 C23.0771732,22.6409792 24.5635257,27.0561207 26.1739295,32.0430755 M130.89817,25.9328221 C133.006591,25.9328221 135.006353,26.2397813 136.839959,25.8200893 C137.98268,25.5588571 139.455903,24.3559212 139.740225,23.2960518 C140.143165,21.7924951 138.397392,21.0595055 137.166386,20.9069314 C135.131762,20.6552068 133.042357,20.8385674 130.89817,20.8385674 L130.89817,25.9328221 Z M130.937559,35.6183351 C133.728714,35.4150538 136.403515,35.3783817 139.008141,34.9315252 C139.749732,34.8043047 140.803263,33.4650934 140.776099,32.7148996 C140.747123,31.9049439 139.72121,30.5865587 138.954717,30.4462087 C136.36141,29.9694712 133.691137,29.9165004 130.937559,29.6928457 L130.937559,35.6183351 Z M143.104552,27.4984045 C147.162027,30.5104981 148.038989,35.2009068 144.769285,37.4677868 C142.923002,38.7476889 140.449219,39.5241417 138.18913,39.7174626 C134.085475,40.069696 129.929755,39.8175186 125.664018,39.8175186 L125.664018,16.2296522 C130.746502,16.4591925 135.791408,16.3310665 140.72177,17.0192345 C144.901485,17.6023664 147.650536,23.027123 143.104552,27.4984045 L143.104552,27.4984045 Z M55.001,4.001 L57.7774147,8.11587894 L56.1357716,8.11587894 L56.1357716,12.3607894 L60.2398793,13.1576156 L61.9756927,8.23902481 L60.2398793,8.32776227 L64.3439869,5.23462786 L61.3865531,17.5954975 C65.0139246,19.4993917 67.4378185,23.1194274 67.506572,28.1082029 C67.5894238,34.1287681 62.3937548,40.731107 54.748298,39.8283391 C47.3142718,40.6496134 42.149842,34.3872839 42.1800428,28.1643429 C42.2050265,23.1358715 44.7318843,19.3626445 48.5808967,17.4554277 L45.6584126,5.23462786 L49.7625203,8.32776227 L48.0267068,8.23902481 L49.7625203,13.1576156 L53.8670807,12.3607894 L53.8670807,8.11587894 L52.2254376,8.11587894 L55.001,4.001 Z M47.9616874,28.0651924 C47.9567129,31.9347796 51.2395463,35.5879561 54.8420156,35.3448335 C59.1571011,35.0537203 61.6965319,31.5526652 61.7639905,28.3019765 C61.8545389,23.9533881 58.7143193,21.1549889 54.9013248,20.8620647 C51.3233036,20.5867975 47.9666732,24.2182423 47.9616874,28.0651924 Z M159.336037,27.9453968 C159.117815,32.5887204 161.948359,34.9099294 166.099552,35.34094 C169.633205,35.7076611 173.052766,31.9870261 173.069589,28.1459616 C173.086269,24.1903534 170.148425,20.8785445 165.97369,20.8817114 C162.823963,20.8844302 158.894614,23.4953942 159.336037,27.9453968 M165.818852,39.8285202 C158.814931,40.6095004 153.296004,34.2946528 153.495663,27.8987644 C153.726109,20.5045795 159.169881,16.1229409 165.918908,16.0867215 C173.519091,16.0464275 178.513742,20.4421011 178.777238,28.1024984 C178.980972,34.022102 173.933803,40.589127 165.818852,39.8285202 M228.970769,18.1526293 C228.344627,19.6774648 227.816729,20.9627998 227.366251,22.0597941 C224.814143,21.6224451 222.460337,21.152046 220.086157,20.836032 C218.470773,20.6209795 216.708248,21.1452549 216.705984,22.8557148 C216.704626,23.7199996 218.403314,24.9002984 219.564145,25.3869962 C222.056038,26.4319251 224.753928,26.9792903 227.264384,27.9861889 C231.146195,29.5418109 230.366573,36.1002338 227.244916,38.0628711 C223.491231,40.4225632 215.053928,40.5330323 211.465493,37.94878 C211.075682,37.6676272 210.897302,36.7069083 211.033125,36.1649759 C211.279869,35.1775453 211.835837,34.2679863 212.298086,33.2488637 C213.810698,33.8329011 215.318329,34.6079957 216.919678,34.9783388 C218.491146,35.3423435 220.193909,35.5524158 221.767641,35.327403 C222.655469,35.2001824 223.397966,34.0601777 224.206563,33.3760843 C223.521564,32.6612044 222.963786,31.6393654 222.126666,31.2925649 C220.228771,30.50751 218.177396,30.1032112 216.217022,29.4566954 C211.855757,28.0183336 211.007318,26.8398458 211.097414,22.5523775 C211.154912,19.8033272 213.157844,17.5083772 216.533942,16.6454506 C220.772967,15.5620386 224.870736,16.0528111 228.970769,18.1526293 M203.551334,18.3502512 C202.977257,19.7143633 202.436683,20.9996983 201.908333,22.2542468 C198.097602,21.5547602 194.213527,18.6943352 190.861877,23.0411127 C192.87658,25.9318714 195.92444,25.5388912 198.443497,26.3877827 C200.707208,27.1506532 203.074597,27.7754374 204.070177,30.2791015 C205.712725,34.409921 203.149752,39.0188361 198.394148,39.6703321 C194.591114,40.1909856 190.645466,40.2914943 186.958334,38.4769038 C185.436215,37.7280682 184.885228,36.9651977 185.93559,35.4308545 C186.381541,34.7780004 186.611986,33.9784577 186.750525,33.6701403 C189.725494,34.2817949 192.560113,34.8803201 195.402881,35.4331183 C195.829817,35.5164228 196.405705,35.5458511 196.726246,35.3276293 C197.490022,34.8065231 198.7577,34.0531602 198.697486,33.5193772 C198.606484,32.7057995 197.710508,31.6495521 196.900552,31.3154283 C194.936556,30.5050199 192.80731,30.1066068 190.776309,29.4433395 C186.535926,28.0584013 185.631347,26.7640114 185.74408,22.4729213 C185.814255,19.8017426 187.959347,17.4864192 191.235389,16.589537 C194.916183,15.5821857 200.936748,16.2169302 203.551334,18.3502512 M117.514433,21.293528 L105.592374,21.293528 L105.592374,26.7554093 L116.143077,26.7554093 L116.143077,31.1528939 L105.554796,31.1528939 L105.554796,39.6454313 L100.348714,39.6454313 L100.348714,16.6071939 L117.514433,16.6071939 L117.514433,21.293528 Z M75.8468974,16.551235 L81.4269445,16.551235 L81.4269445,34.9330193 L92.6572137,34.9330193 L92.6572137,39.7080908 L75.8468974,39.7080908 L75.8468974,16.551235 Z" id="shape" fill="#FFFFFF"></path>
            </g>
        </g>
    </g>
</svg>