<svg width="48" height="48" viewBox="0 0 48 48" xmlns="http://www.w3.org/2000/svg">
    <g fill="none" fill-rule="evenodd">
        <path d="M0 0h48v48H0z"/>
        <path d="M37.862 11.287a32.986 32.986 0 0 0-8.142-2.525.124.124 0 0 0-.131.062 22.977 22.977 0 0 0-1.014 2.082 30.452 30.452 0 0 0-9.144 0 21.074 21.074 0 0 0-1.03-2.082.128.128 0 0 0-.13-.062 32.894 32.894 0 0 0-8.143 2.525.116.116 0 0 0-.053.046c-5.186 7.748-6.607 15.304-5.91 22.768a.137.137 0 0 0 .052.093c3.422 2.513 6.736 4.038 9.988 5.05a.13.13 0 0 0 .14-.047 23.707 23.707 0 0 0 2.044-3.323.127.127 0 0 0-.07-.177 21.844 21.844 0 0 1-3.12-1.487.128.128 0 0 1-.012-.213c.21-.157.42-.32.62-.485a.124.124 0 0 1 .129-.018c6.546 2.99 13.633 2.99 20.102 0a.123.123 0 0 1 .131.016c.2.165.41.33.621.487a.128.128 0 0 1-.01.213 20.498 20.498 0 0 1-3.122 1.486.128.128 0 0 0-.068.178 26.62 26.62 0 0 0 2.041 3.322.127.127 0 0 0 .14.047c3.27-1.01 6.583-2.536 10.005-5.049a.128.128 0 0 0 .052-.092c.834-8.628-1.397-16.123-5.914-22.767a.102.102 0 0 0-.052-.048zm-20.495 18.27c-1.971 0-3.595-1.81-3.595-4.032s1.592-4.032 3.595-4.032c2.018 0 3.626 1.826 3.594 4.032 0 2.222-1.592 4.031-3.594 4.031zm13.29 0c-1.97 0-3.594-1.81-3.594-4.032s1.593-4.032 3.595-4.032c2.018 0 3.626 1.826 3.595 4.032 0 2.222-1.577 4.031-3.595 4.031z" fill="#FFF" fill-rule="nonzero"/>
    </g>
</svg>
