<svg width="48" height="48" viewBox="0 0 48 48" xmlns="http://www.w3.org/2000/svg">
    <g fill="none" fill-rule="evenodd">
        <path d="M0 0h48v48H0z"/>
        <path d="M25.398 4c2.675.003 3.94.016 5.012.047l.254.008.376.014.253.01.953.041c2.129.097 3.583.436 4.855.93a9.803 9.803 0 0 1 3.542 2.307 9.804 9.804 0 0 1 2.307 3.542c.494 1.272.833 2.726.93 4.855.015.347.03.656.041.953l.01.253.014.376.008.254c.031 1.073.044 2.337.046 5.013L44 23.629v1.769c-.003 2.675-.016 3.94-.047 5.012l-.008.254-.014.376-.01.253-.041.953c-.097 2.129-.436 3.583-.93 4.855a9.804 9.804 0 0 1-2.307 3.542 9.804 9.804 0 0 1-3.542 2.307c-1.272.494-2.726.833-4.855.93-.347.015-.656.03-.953.041l-.253.01-.376.014-.254.008c-1.073.031-2.337.044-5.012.046L24.37 44h-1.768c-2.676-.003-3.94-.016-5.013-.047l-.254-.008-.376-.014-.253-.01a200.41 200.41 0 0 1-.953-.041c-2.129-.097-3.583-.436-4.855-.93a9.804 9.804 0 0 1-3.542-2.307 9.803 9.803 0 0 1-2.307-3.542c-.494-1.272-.833-2.726-.93-4.855-.015-.347-.03-.656-.041-.953l-.01-.253-.014-.376-.008-.254c-.031-1.073-.044-2.337-.046-5.012v-2.795c.002-2.676.015-3.94.046-5.013l.008-.254.014-.376.01-.253.041-.953c.097-2.129.436-3.583.93-4.855a9.803 9.803 0 0 1 2.307-3.542 9.803 9.803 0 0 1 3.542-2.307c1.272-.494 2.726-.833 4.855-.93.347-.015.656-.03.953-.041l.253-.01.376-.014.254-.008c1.073-.031 2.337-.044 5.013-.046zm-.323 3.604h-2.15c-3.244.002-4.455.016-5.668.06l-.252.01c-.337.012-.685.028-1.087.046-1.95.09-3.009.415-3.713.689-.934.363-1.6.796-2.3 1.496-.7.7-1.133 1.366-1.496 2.3-.274.704-.6 1.763-.689 3.713-.018.402-.034.75-.047 1.087l-.01.252c-.043 1.213-.057 2.424-.06 5.669v2.149c.003 3.244.017 4.455.06 5.668l.01.252c.013.337.029.685.047 1.087.09 1.95.415 3.009.689 3.713.363.934.796 1.6 1.496 2.3.7.7 1.366 1.133 2.3 1.496.704.274 1.763.6 3.713.689.502.023.92.041 1.339.056l.251.009c1.138.037 2.396.049 5.417.051h2.15c3.02-.002 4.279-.014 5.417-.051l.251-.009c.418-.015.837-.033 1.339-.056 1.95-.09 3.009-.415 3.713-.689.934-.363 1.6-.796 2.3-1.496.7-.7 1.133-1.366 1.496-2.3.274-.704.6-1.763.689-3.713.018-.402.034-.75.047-1.087l.01-.252c.043-1.213.057-2.424.06-5.668v-2.15c-.003-3.244-.017-4.455-.06-5.668l-.01-.252c-.013-.337-.029-.685-.047-1.087-.09-1.95-.415-3.009-.689-3.713-.363-.934-.796-1.6-1.496-2.3-.7-.7-1.366-1.133-2.3-1.496-.704-.274-1.763-.6-3.713-.689-.402-.018-.75-.034-1.087-.047l-.252-.01c-1.213-.043-2.424-.057-5.668-.06zM24 13.73c5.672 0 10.27 4.598 10.27 10.27S29.672 34.27 24 34.27 13.73 29.672 13.73 24 18.328 13.73 24 13.73zm0 3.603a6.667 6.667 0 1 0 0 13.334 6.667 6.667 0 0 0 0-13.334zm10.676-6.41a2.4 2.4 0 1 1 0 4.801 2.4 2.4 0 0 1 0-4.8z" fill="#FFF"/>
    </g>
</svg>
